<svg width="28" height="28" viewBox="0 0 28 28" fill="none" xmlns="http://www.w3.org/2000/svg">
<circle cx="14" cy="14" r="14" fill="#C4C4C4"/>
<path d="M17.0648 5.4668H10.7386C7.82751 5.4668 5.4668 7.82751 5.4668 10.7386V17.0648C5.4668 19.9758 7.82751 22.3365 10.7386 22.3365H17.0648C19.9758 22.3365 22.3365 19.9758 22.3365 17.0648V10.7386C22.3365 7.82751 19.9758 5.4668 17.0648 5.4668ZM20.755 17.0648C20.755 19.0997 19.0997 20.755 17.0648 20.755H10.7386C8.70368 20.755 7.04834 19.0997 7.04834 17.0648V10.7386C7.04834 8.70368 8.70368 7.04834 10.7386 7.04834H17.0648C19.0997 7.04834 20.755 8.70368 20.755 10.7386V17.0648Z" fill="black"/>
<path d="M13.9015 9.68408C11.5724 9.68408 9.68408 11.5724 9.68408 13.9015C9.68408 16.2306 11.5724 18.119 13.9015 18.119C16.2306 18.119 18.119 16.2306 18.119 13.9015C18.119 11.5724 16.2306 9.68408 13.9015 9.68408ZM13.9015 16.5374C12.4486 16.5374 11.2656 15.3544 11.2656 13.9015C11.2656 12.4476 12.4486 11.2656 13.9015 11.2656C15.3544 11.2656 16.5374 12.4476 16.5374 13.9015C16.5374 15.3544 15.3544 16.5374 13.9015 16.5374Z" fill="black"/>
<path d="M18.4355 9.9301C18.7459 9.9301 18.9975 9.6785 18.9975 9.36813C18.9975 9.05776 18.7459 8.80615 18.4355 8.80615C18.1251 8.80615 17.8735 9.05776 17.8735 9.36813C17.8735 9.6785 18.1251 9.9301 18.4355 9.9301Z" fill="black"/>
</svg>
