<svg width="205" height="101" viewBox="0 0 205 101" fill="none" xmlns="http://www.w3.org/2000/svg">
<path d="M87.6564 96.5785H12.2536C9.25516 96.5785 6.69859 94.4165 6.20938 91.4575L4 78.9587H95.91L93.7006 91.4575C93.2035 94.4086 90.647 96.5785 87.6564 96.5785Z" fill="#161D21"/>
<path d="M89.5975 84.648H10.3125C6.82484 84.648 4 81.8231 4 78.3355V11.3125C4 7.82484 6.82484 5 10.3125 5H89.5975C93.0852 5 95.91 7.82484 95.91 11.3125V78.3434C95.91 81.8231 93.0852 84.648 89.5975 84.648Z" fill="url(#paint0_linear_25_22)"/>
<path d="M32.1695 43.0643H14.7865C12.1747 43.0643 10.0521 40.9417 10.0521 38.3299V13.9084C10.0521 11.2967 12.1747 9.17407 14.7865 9.17407H32.1695C34.7813 9.17407 36.9039 11.2967 36.9039 13.9084V38.3299C36.9039 40.9417 34.7813 43.0643 32.1695 43.0643Z" fill="#E53A35"/>
<g opacity="0.2">
<path opacity="0.2" d="M89.345 7.68282C91.6096 7.68282 93.4481 9.52134 93.4481 11.7859V78.3118C93.4481 78.4617 93.4324 78.6353 93.4087 78.8642C93.385 79.0141 93.385 79.1719 93.3929 79.3218L91.2782 91.284C90.9863 93.0594 89.4634 94.3456 87.6643 94.3456H12.2536C10.4545 94.3456 8.93164 93.0594 8.6318 91.2603L6.51711 79.3218C6.525 79.1719 6.51711 79.0141 6.50133 78.8642C6.46977 78.6432 6.46188 78.4696 6.46188 78.3118V11.7859C6.46188 9.52134 8.30039 7.68282 10.565 7.68282H89.345ZM89.345 5.22095H10.565C6.9432 5.22095 4 8.15626 4 11.7859V78.3118C4 78.6117 4.02367 78.8957 4.06312 79.1877H4L6.20938 91.6864C6.69859 94.6375 9.25516 96.8074 12.2536 96.8074H87.6564C90.6549 96.8074 93.2114 94.6454 93.7006 91.6864L95.91 79.1877H95.8469C95.8863 78.9036 95.91 78.6117 95.91 78.3118V11.7859C95.91 8.15626 92.9668 5.22095 89.345 5.22095Z" fill="#EEEEEE"/>
</g>
<path d="M9.83118 74.3112V55.3264C9.83118 52.7146 11.9538 50.592 14.5656 50.592H54.1528C56.7646 50.592 58.8872 52.7146 58.8872 55.3264V74.3034C58.8872 76.9151 56.7646 79.0377 54.1528 79.0377H14.5656C11.9459 79.0456 9.83118 76.923 9.83118 74.3112Z" fill="#E53A35"/>
<path d="M65.1681 73.8931V55.7446C65.1681 53.1328 67.2907 51.0103 69.9025 51.0103H85.1235C87.7353 51.0103 89.8579 53.1328 89.8579 55.7446V73.8931C89.8579 76.5049 87.7353 78.6274 85.1235 78.6274H69.9025C67.2907 78.6274 65.1681 76.5128 65.1681 73.8931Z" fill="#E53A35"/>
<path d="M85.881 43.4667H47.0355C44.4237 43.4667 42.3011 41.3442 42.3011 38.7324V13.9084C42.3011 11.2967 44.4237 9.17407 47.0355 9.17407H85.881C88.4928 9.17407 90.6154 11.2967 90.6154 13.9084V38.7402C90.6154 41.352 88.4928 43.4667 85.881 43.4667Z" fill="#E53A35"/>
<path d="M76.0967 53.3538H75.347V54.127H76.0967V53.3538Z" fill="#A16541"/>
<path d="M61.57 82.4072H6.29614L7.02208 68.4013C7.70067 59.5796 15.2283 52.407 24.0106 51.3102C26.796 50.963 30.0785 50.75 33.937 50.75C37.7955 50.75 41.078 50.963 43.8634 51.3102C52.6378 52.407 60.1733 59.5796 60.8519 68.4013L61.57 82.4072Z" fill="url(#paint1_radial_25_22)"/>
<path d="M59.8498 83.0225C61.7237 83.0225 63.2428 81.5034 63.2428 79.6295C63.2428 77.7557 61.7237 76.2366 59.8498 76.2366C57.9759 76.2366 56.4568 77.7557 56.4568 79.6295C56.4568 81.5034 57.9759 83.0225 59.8498 83.0225Z" fill="url(#paint2_radial_25_22)"/>
<path d="M60.8519 70.9815C61.7436 70.366 62.3275 69.3482 62.3275 68.1803C62.3275 67.1546 61.8698 66.2393 61.1439 65.6159C60.6231 65.174 60.4337 64.456 60.5521 63.7853C60.5837 63.5959 60.5994 63.4065 60.5994 63.2092C60.5994 61.3313 59.0765 59.8163 57.2065 59.8163C57.1907 59.8163 57.1828 59.8163 57.167 59.8242C57.1986 59.6269 57.2301 59.4296 57.2301 59.2245C57.2301 57.3465 55.7072 55.8315 53.8372 55.8315C53.8372 53.9535 52.3143 52.4385 50.4442 52.4385C50.3022 52.4385 50.168 52.4464 50.0339 52.4622C49.3632 52.549 48.724 52.2097 48.298 51.6889C47.6825 50.9314 46.7435 50.4422 45.6862 50.4422C45.2048 50.4422 44.7551 50.5448 44.3447 50.7263C43.8398 50.9551 43.2243 50.8604 42.814 50.4896C42.2143 49.953 41.4331 49.6216 40.5573 49.6216C39.9733 49.6216 39.4289 49.7715 38.9555 50.0319C38.4583 50.3081 37.8113 50.2449 37.4089 49.8425C36.8013 49.2349 35.9649 48.8562 35.0338 48.8562C34.3473 48.8562 33.7161 49.0614 33.1795 49.4164C32.6666 49.7557 32.0275 49.7557 31.5146 49.4164C30.9859 49.0614 30.3468 48.8562 29.6603 48.8562C28.6661 48.8562 27.7744 49.2823 27.159 49.9609C26.7329 50.4343 26.0385 50.5764 25.4309 50.387C25.1232 50.2923 24.7918 50.2371 24.4446 50.2371C23.6634 50.2371 22.9454 50.5053 22.3773 50.9472C21.7618 51.4285 20.9964 51.6889 20.231 51.5232C20.0101 51.4759 19.7733 51.4522 19.5366 51.4522C17.8796 51.4522 16.5066 52.6358 16.2068 54.206C16.0648 54.1903 15.9227 54.1666 15.7807 54.1666C14.0132 54.1666 12.585 55.5159 12.4193 57.236C12.4114 57.236 12.3956 57.236 12.3877 57.236C10.5098 57.236 8.99476 58.7589 8.99476 60.629C8.99476 60.6606 8.99476 60.6842 8.99476 60.7158C9.01054 61.3313 8.71069 61.8915 8.1978 62.2308C7.28249 62.8384 6.67491 63.8721 6.67491 65.0478C6.67491 65.7185 6.88007 66.3418 7.21147 66.8705C6.64335 67.4781 6.28827 68.2908 6.28827 69.1903C6.28827 70.1846 6.72226 71.0762 7.40874 71.6996C6.72226 72.3229 6.28038 73.2146 6.28038 74.2167C6.28038 75.3292 6.82483 76.3077 7.65335 76.931C6.67491 77.6649 6.09101 78.9037 6.33562 80.2688C6.57233 81.5944 7.62179 82.6833 8.94741 82.9595C11.141 83.4171 13.0663 81.7522 13.0663 79.6375C13.0663 78.525 12.5219 77.5465 11.6933 76.9232C12.5219 76.3077 13.0663 75.3214 13.0663 74.2088C13.0663 73.2146 12.6323 72.3229 11.9458 71.6996C12.6323 71.0762 13.0742 70.1846 13.0742 69.1825C13.0742 68.5117 12.8691 67.8884 12.5376 67.3597C13.1058 66.7521 13.4608 65.9394 13.4608 65.0399C13.4608 64.6375 13.3819 64.2508 13.2478 63.8957C14.5971 63.5407 15.6071 62.3807 15.7491 60.9525C15.757 60.9525 15.7728 60.9525 15.7807 60.9525C17.4377 60.9525 18.8107 59.7689 19.1105 58.1987C19.2526 58.2145 19.3946 58.2382 19.5366 58.2382C20.8386 58.2382 21.9591 57.4964 22.5272 56.4233C23.0716 56.8021 23.7344 57.023 24.4446 57.023C25.8649 57.023 27.0722 56.155 27.5851 54.9162C28.1611 55.366 28.8791 55.6421 29.6603 55.6421C30.7571 55.6421 31.7276 55.1135 32.3431 54.3007C32.9665 55.1056 33.9291 55.6421 35.0259 55.6421C36.0201 55.6421 36.9039 55.2082 37.5273 54.5296C38.0875 55.6421 39.2237 56.4075 40.5494 56.4075C41.4016 56.4075 42.1748 56.084 42.7666 55.5632C43.3584 56.5574 44.4315 57.236 45.6783 57.236C46.2306 57.236 46.7514 57.094 47.209 56.8573C47.643 58.2303 48.9134 59.2324 50.4284 59.2324C50.4284 61.1103 51.9513 62.6253 53.8214 62.6253C53.8372 62.6253 53.8451 62.6253 53.8608 62.6175C53.8293 62.8147 53.7977 63.012 53.7977 63.2171C53.7977 64.6848 54.7367 65.9236 56.0387 66.3971C55.7151 66.9178 55.5179 67.5254 55.5179 68.1803C55.5179 69.7032 56.5279 70.9736 57.9008 71.4076C56.8593 72.1178 56.2359 73.396 56.4726 74.8006C56.7015 76.142 57.7588 77.2467 59.0844 77.5228C61.278 77.9805 63.2112 76.3156 63.2112 74.2088C63.2428 72.6859 62.2328 71.4155 60.8519 70.9815Z" fill="url(#paint3_radial_25_22)"/>
<path d="M33.4557 61.4813C35.7131 61.4813 37.543 59.9834 37.543 58.1357C37.543 56.2879 35.7131 54.79 33.4557 54.79C31.1983 54.79 29.3683 56.2879 29.3683 58.1357C29.3683 59.9834 31.1983 61.4813 33.4557 61.4813Z" fill="#B0BEC5"/>
<path d="M33.4557 60.0765C35.7131 60.0765 37.543 58.5786 37.543 56.7309C37.543 54.8831 35.7131 53.3853 33.4557 53.3853C31.1983 53.3853 29.3683 54.8831 29.3683 56.7309C29.3683 58.5786 31.1983 60.0765 33.4557 60.0765Z" fill="url(#paint4_radial_25_22)"/>
<path opacity="0.2" d="M18.9709 71.8596C19.0725 71.2227 18.1013 70.5383 16.8017 70.3308C15.5021 70.1234 14.3661 70.4716 14.2645 71.1085C14.1628 71.7454 15.134 72.4299 16.4336 72.6373C17.7332 72.8447 18.8692 72.4965 18.9709 71.8596Z" fill="#B0BEC5"/>
<path opacity="0.2" d="M24.1107 75.9958C24.2124 75.3589 23.4714 74.7111 22.4558 74.5491C21.4402 74.387 20.5345 74.7719 20.4329 75.4088C20.3312 76.0457 21.0721 76.6934 22.0878 76.8555C23.1034 77.0176 24.0091 76.6327 24.1107 75.9958Z" fill="#B0BEC5"/>
<path opacity="0.2" d="M11.5009 69.6358C12.6059 68.9209 13.2176 67.9024 12.8673 67.3609C12.5169 66.8194 11.3372 66.9599 10.2322 67.6748C9.12721 68.3897 8.51546 69.4082 8.8658 69.9497C9.21615 70.4912 10.3959 70.3507 11.5009 69.6358Z" fill="#B0BEC5"/>
<path opacity="0.2" d="M12.553 76.5745C12.8351 75.9945 12.2632 75.1349 11.2756 74.6546C10.288 74.1742 9.25873 74.255 8.97662 74.835C8.69451 75.4151 9.26643 76.2747 10.254 76.755C11.2416 77.2353 12.2709 77.1545 12.553 76.5745Z" fill="#90A4AE"/>
<path opacity="0.2" d="M17.2026 79.8136C18.1528 79.2629 18.6608 78.3641 18.3374 77.806C18.0139 77.248 16.9815 77.2421 16.0313 77.7928C15.0812 78.3436 14.5731 79.2424 14.8966 79.8004C15.22 80.3585 16.2525 80.3644 17.2026 79.8136Z" fill="#90A4AE"/>
<path opacity="0.2" d="M56.5231 73.8459C57.8227 73.6385 58.7939 72.954 58.6922 72.3171C58.5906 71.6802 57.4546 71.3321 56.155 71.5395C54.8554 71.7469 53.8842 72.4313 53.9859 73.0683C54.0875 73.7052 55.2235 74.0533 56.5231 73.8459Z" fill="#B0BEC5"/>
<path opacity="0.2" d="M47.0233 76.883C48.323 76.6756 49.2941 75.9912 49.1925 75.3543C49.0908 74.7174 47.9549 74.3692 46.6552 74.5766C45.3556 74.784 44.3845 75.4685 44.4861 76.1054C44.5878 76.7423 45.7237 77.0904 47.0233 76.883Z" fill="#B0BEC5"/>
<path opacity="0.2" d="M59.0185 67.5046C59.3689 66.9631 58.7571 65.9446 57.6521 65.2297C56.5472 64.5148 55.3674 64.3742 55.017 64.9157C54.6667 65.4573 55.2785 66.4758 56.3834 67.1907C57.4884 67.9056 58.6682 68.0461 59.0185 67.5046Z" fill="#B0BEC5"/>
<path opacity="0.2" d="M55.7071 79.8068C56.0305 79.2487 55.5225 78.3499 54.5723 77.7992C53.6222 77.2484 52.5897 77.2543 52.2663 77.8124C51.9428 78.3704 52.4508 79.2692 53.401 79.82C54.3511 80.3707 55.3836 80.3648 55.7071 79.8068Z" fill="#90A4AE"/>
<path opacity="0.2" d="M31.7917 79.2163C31.9256 78.5854 31.1632 77.8892 30.089 77.6613C29.0147 77.4335 28.0354 77.7602 27.9016 78.3911C27.7677 79.022 28.5301 79.7182 29.6043 79.946C30.6786 80.1739 31.6579 79.8472 31.7917 79.2163Z" fill="#B0BEC5"/>
<path opacity="0.2" d="M35.4625 75.1494C36.9289 75.0698 38.0893 74.4832 38.0544 73.8392C38.0194 73.1952 36.8023 72.7377 35.3359 72.8173C33.8695 72.8969 32.7091 73.4835 32.7441 74.1275C32.779 74.7715 33.9961 75.229 35.4625 75.1494Z" fill="#B0BEC5"/>
<path opacity="0.2" d="M29.9531 73.3699C30.9595 72.9306 31.5663 72.0953 31.3083 71.5042C31.0504 70.9131 30.0253 70.79 29.0188 71.2293C28.0123 71.6686 27.4055 72.5038 27.6635 73.095C27.9215 73.6861 28.9466 73.8092 29.9531 73.3699Z" fill="#B0BEC5"/>
<path opacity="0.2" d="M25.458 69.9131C25.6966 69.3139 25.0628 68.4988 24.0425 68.0926C23.0222 67.6864 22.0017 67.8429 21.7631 68.4421C21.5245 69.0413 22.1582 69.8564 23.1786 70.2626C24.1989 70.6688 25.2194 70.5124 25.458 69.9131Z" fill="#B0BEC5"/>
<path opacity="0.2" d="M20.4929 65.1443C20.6861 64.0633 20.328 63.095 19.6931 62.9815C19.0582 62.8681 18.3869 63.6525 18.1937 64.7335C18.0005 65.8146 18.3586 66.7829 18.9935 66.8963C19.6284 67.0098 20.2997 66.2254 20.4929 65.1443Z" fill="#D0D8DC"/>
<path opacity="0.2" d="M32.4975 66.8056C32.5948 66.168 31.7935 65.5168 30.7079 65.3512C29.6222 65.1856 28.6633 65.5682 28.566 66.2059C28.4687 66.8435 29.27 67.4946 30.3557 67.6602C31.4413 67.8258 32.4003 67.4432 32.4975 66.8056Z" fill="#D0D8DC"/>
<path opacity="0.2" d="M51.0484 64.4535C51.9861 63.882 52.4742 62.9723 52.1386 62.4215C51.803 61.8708 50.7707 61.8876 49.8329 62.4591C48.8952 63.0306 48.4071 63.9404 48.7427 64.4911C49.0784 65.0418 50.1107 65.025 51.0484 64.4535Z" fill="#B0BEC5"/>
<path opacity="0.2" d="M15.1081 63.4893C15.3467 62.8901 14.713 62.075 13.6927 61.6688C12.6723 61.2626 11.6518 61.419 11.4132 62.0183C11.1747 62.6175 11.8084 63.4326 12.8287 63.8388C13.849 64.245 14.8696 64.0885 15.1081 63.4893Z" fill="#B0BEC5"/>
<path opacity="0.2" d="M40.9603 79.8376C41.9363 79.334 42.4877 78.4612 42.192 77.888C41.8963 77.3148 40.8654 77.2584 39.8894 77.7619C38.9135 78.2654 38.362 79.1382 38.6578 79.7114C38.9535 80.2846 39.9844 80.3411 40.9603 79.8376Z" fill="#90A4AE"/>
<path opacity="0.2" d="M42.0311 66.8391C43.2839 66.436 44.1393 65.6115 43.9418 64.9975C43.7442 64.3836 42.5685 64.2127 41.3157 64.6158C40.0629 65.0189 39.2075 65.8434 39.4051 66.4573C39.6026 67.0713 40.7783 67.2422 42.0311 66.8391Z" fill="#D0D8DC"/>
<path opacity="0.2" d="M50.7362 58.0811C51.0421 57.5133 50.351 56.5469 49.1924 55.9226C48.0339 55.2982 46.8467 55.2524 46.5407 55.8201C46.2347 56.3879 46.9259 57.3543 48.0844 57.9786C49.243 58.603 50.4302 58.6488 50.7362 58.0811Z" fill="#D0D8DC"/>
<path opacity="0.2" d="M17.7958 59.0375C18.5552 58.5114 18.8731 57.6551 18.5057 57.1249C18.1384 56.5948 17.225 56.5915 16.4656 57.1176C15.7062 57.6438 15.3883 58.5001 15.7556 59.0303C16.123 59.5604 17.0363 59.5637 17.7958 59.0375Z" fill="#D0D8DC"/>
<path opacity="0.2" d="M25.3717 64.4138C26.1311 63.8876 26.449 63.0313 26.0817 62.5011C25.7144 61.971 24.801 61.9677 24.0416 62.4939C23.2821 63.02 22.9643 63.8763 23.3316 64.4065C23.6989 64.9366 24.6123 64.9399 25.3717 64.4138Z" fill="#D0D8DC"/>
<path opacity="0.2" d="M44.639 61.0348C45.3985 60.5087 45.7163 59.6524 45.349 59.1222C44.9817 58.5921 44.0683 58.5888 43.3089 59.115C42.5495 59.6411 42.2316 60.4974 42.5989 61.0276C42.9662 61.5577 43.8796 61.561 44.639 61.0348Z" fill="#D0D8DC"/>
<path opacity="0.2" d="M43.2281 53.9998C43.4662 53.4004 42.9633 52.6381 42.1047 52.297C41.2462 51.9559 40.3571 52.1652 40.119 52.7646C39.8809 53.364 40.3839 54.1264 41.2424 54.4675C42.101 54.8085 42.99 54.5992 43.2281 53.9998Z" fill="#D0D8DC"/>
<path opacity="0.2" d="M23.3075 58.2567C24.1839 57.9643 24.7289 57.2313 24.5247 56.6195C24.3206 56.0076 23.4447 55.7487 22.5683 56.0411C21.6919 56.3335 21.1469 57.0665 21.3511 57.6783C21.5552 58.2902 22.4311 58.5491 23.3075 58.2567Z" fill="#D0D8DC"/>
<path opacity="0.2" d="M28.0612 52.7091C28.1276 52.0676 27.4365 51.4703 26.5176 51.3752C25.5986 51.28 24.7998 51.723 24.7333 52.3645C24.6669 53.006 25.358 53.6033 26.277 53.6984C27.196 53.7936 27.9948 53.3506 28.0612 52.7091Z" fill="#D0D8DC"/>
<path opacity="0.2" d="M50.3144 70.5083C51.566 70.1014 52.4189 69.2742 52.2195 68.6609C52.0201 68.0475 50.8438 67.8802 49.5922 68.2871C48.3406 68.694 47.4877 69.5212 47.6871 70.1345C47.8865 70.7479 49.0628 70.9152 50.3144 70.5083Z" fill="#B0BEC5"/>
<path opacity="0.2" d="M44.4103 72.7072C44.7096 72.1359 44.0071 71.1777 42.8414 70.5671C41.6756 69.9564 40.4879 69.9245 40.1887 70.4958C39.8894 71.0671 40.5918 72.0253 41.7576 72.636C42.9234 73.2466 44.1111 73.2785 44.4103 72.7072Z" fill="#B0BEC5"/>
<path opacity="0.1" d="M28.5057 59.3906C29.7573 58.9837 30.6103 58.1566 30.4108 57.5432C30.2114 56.9299 29.0351 56.7625 27.7835 57.1694C26.5319 57.5764 25.679 58.4035 25.8784 59.0168C26.0778 59.6302 27.2541 59.7976 28.5057 59.3906Z" fill="#D0D8DC"/>
<path d="M35.2497 16.9859C35.9046 18.6666 35.9046 22.2568 35.9046 22.2568C35.9046 22.2568 29.3712 23.9691 23.3033 23.9691C17.3538 23.9691 10.7493 22.2568 10.7493 22.2568C10.7493 22.2568 10.7493 18.8402 11.3569 16.9859C12.5721 13.2931 16.3438 10.0027 23.3033 10.0027C30.2628 10.0027 33.8294 13.3483 35.2497 16.9859Z" fill="url(#paint5_radial_25_22)"/>
<path d="M35.9018 21.7361C35.9018 25.5946 32.7456 28.1986 23.3005 28.1986C13.8554 28.1986 10.6992 25.5946 10.6992 21.7361C10.6992 17.8776 16.341 14.7529 23.3005 14.7529C30.26 14.7529 35.9018 17.8776 35.9018 21.7361Z" fill="url(#paint6_linear_25_22)"/>
<path d="M32.6114 20.1264L34.158 19.5267L33.5819 17.8855L32.3273 19.7003L32.6114 20.1264Z" fill="#568B3E"/>
<path d="M31.1753 19.8501L31.341 18.4456L30.5835 17.7275L30.2758 19.8738L31.1753 19.8501Z" fill="#568B3E"/>
<path d="M22.9296 18.777L23.1032 17.3645L22.3457 16.6465L22.322 17.7275L22.3062 18.8006L22.9296 18.777Z" fill="#568B3E"/>
<path d="M20.4598 18.6191L21.0437 18.8006L21.17 17.4671L20.3099 17.1436L20.4598 18.6191Z" fill="#568B3E"/>
<path d="M16.0963 19.2346L16.3252 18.1063L14.9048 17.7275L15.11 19.716L16.0963 19.2346Z" fill="#568B3E"/>
<path d="M32.0275 17.1752C31.1358 16.544 30.4257 17.4672 30.6072 17.9091C30.7176 18.1852 30.978 18.3588 30.8991 18.6823C30.8202 19.0059 30.5598 19.0532 30.0943 19.0216C29.5735 18.9901 29.2894 18.5876 29.2184 18.2326C28.9028 16.6466 27.9244 16.2994 27.1905 16.6623C26.5908 16.9622 27.2537 17.5303 26.7092 17.7512C26.078 18.0037 25.715 17.8538 25.4151 17.4987C25.1863 17.2305 25.4862 16.7807 25.0364 16.2284C24.2947 15.3051 22.4956 15.8654 22.3141 16.5045C22.1326 17.1437 22.7323 17.1752 22.756 17.7276C22.7797 18.2799 21.7302 18.5798 21.2015 18.3588C20.1126 17.9091 21.2568 17.9564 21.1621 17.2541C21.028 16.2915 19.655 16.5913 19.3394 16.7807C18.503 17.2778 18.8107 17.7039 18.6055 18.0116C18.1163 18.7218 17.3825 18.3352 17.0037 18.1142C16.625 17.8933 16.5461 16.9543 15.3783 17.3094C14.5813 17.554 14.9127 18.1221 15.2362 18.4772C15.3862 18.6429 15.3309 18.9033 15.1258 18.998C14.3604 19.3373 13.7686 18.8244 13.3504 18.5877C12.8533 18.3115 12.1194 18.3509 11.7722 18.7218C11.3619 19.1716 12.6402 19.4241 12.1352 19.8738C11.717 20.2447 11.1568 19.6766 11.0463 19.5187C10.3993 18.6508 9.32615 20.5209 10.1941 20.726C11.0542 20.9312 10.8885 21.6966 10.7307 21.9569C10.4151 22.4856 9.80748 21.2231 10.0047 23.3694C10.1389 24.8765 11.2199 25.6813 12.009 26.21C13.0584 26.9201 32.4378 27.9538 35.1206 26.3284C35.7913 25.918 37.6377 23.3299 37.1564 22.383C36.4383 20.9943 36.3437 22.7697 35.886 22.2489C34.8918 21.1126 36.4147 20.9943 36.1622 20.3157C35.8939 19.5819 35.6651 20.1894 35.3968 19.9133C35.0101 19.5109 35.1601 19.2741 35.3494 18.998C35.5467 18.706 34.513 17.767 33.8265 17.767C33.148 17.767 33.9528 18.5955 33.5188 18.8165C33.0848 19.0374 32.8008 18.8402 32.3352 18.3904C31.8697 17.9643 32.5562 17.5461 32.0275 17.1752Z" fill="url(#paint7_linear_25_22)"/>
<path d="M35.2497 26.4705C35.9046 28.1512 35.9046 31.7414 35.9046 31.7414C35.9046 31.7414 29.3712 33.4537 23.3033 33.4537C17.3538 33.4537 10.7493 31.7414 10.7493 31.7414C10.7493 31.7414 10.7493 28.3248 11.3569 26.4705C12.5721 22.7777 16.3438 19.4873 23.3033 19.4873C30.2628 19.4873 33.8294 22.8329 35.2497 26.4705Z" fill="url(#paint8_radial_25_22)"/>
<path d="M35.9018 31.2208C35.9018 35.0793 32.7456 37.6832 23.3005 37.6832C13.8554 37.6832 10.6992 35.0793 10.6992 31.2208C10.6992 27.3622 16.341 24.2375 23.3005 24.2375C30.26 24.2375 35.9018 27.3622 35.9018 31.2208Z" fill="url(#paint9_linear_25_22)"/>
<path d="M19.5177 21.6861C20.1688 21.5646 20.6449 21.1883 20.5809 20.8456C20.517 20.5029 19.9373 20.3236 19.2862 20.4451C18.635 20.5666 18.159 20.9429 18.2229 21.2856C18.2869 21.6283 18.8666 21.8076 19.5177 21.6861Z" fill="#FDD836"/>
<path d="M23.0254 21.0313C23.6859 20.9809 24.1998 20.6583 24.1733 20.3106C24.1468 19.963 23.5898 19.7221 22.9294 19.7725C22.2689 19.8229 21.755 20.1456 21.7815 20.4932C21.808 20.8408 22.365 21.0817 23.0254 21.0313Z" fill="#FDD836"/>
<path d="M21.9841 22.2542C22.6445 22.2038 23.1584 21.8812 23.1319 21.5335C23.1054 21.1859 22.5485 20.945 21.888 20.9954C21.2275 21.0458 20.7136 21.3685 20.7401 21.7161C20.7666 22.0637 21.3236 22.3046 21.9841 22.2542Z" fill="#F9BF2C"/>
<path d="M26.6956 21.9033C26.7044 21.5547 26.1748 21.2586 25.5126 21.2417C24.8504 21.2249 24.3064 21.4938 24.2975 21.8423C24.2887 22.1909 24.8183 22.487 25.4805 22.5039C26.1427 22.5207 26.6867 22.2518 26.6956 21.9033Z" fill="#F9BF2C"/>
<path d="M23.5358 23.0691C24.1973 23.0357 24.7194 22.7264 24.7018 22.3782C24.6842 22.03 24.1337 21.7748 23.4722 21.8082C22.8106 21.8416 22.2886 22.1509 22.3062 22.4991C22.3237 22.8473 22.8743 23.1024 23.5358 23.0691Z" fill="#FDD836"/>
<path d="M27.9787 20.8157C28.029 20.4708 27.5385 20.1136 26.8831 20.0179C26.2276 19.9223 25.6555 20.1244 25.6051 20.4694C25.5548 20.8143 26.0453 21.1715 26.7008 21.2672C27.3562 21.3628 27.9283 21.1607 27.9787 20.8157Z" fill="#FDD836"/>
<path d="M17.8083 23.0126C18.4108 22.7374 18.7818 22.2572 18.6369 21.9401C18.4921 21.6229 17.8862 21.589 17.2837 21.8642C16.6812 22.1394 16.3102 22.6196 16.455 22.9367C16.5999 23.2538 17.2058 23.2878 17.8083 23.0126Z" fill="#F9BF2C"/>
<path d="M25.6045 23.9852C26.2669 23.9852 26.8039 23.7025 26.8039 23.3539C26.8039 23.0053 26.2669 22.7227 25.6045 22.7227C24.9421 22.7227 24.4052 23.0053 24.4052 23.3539C24.4052 23.7025 24.9421 23.9852 25.6045 23.9852Z" fill="#F9BF2C"/>
<path d="M29.1843 22.0319C29.2055 21.6839 28.6866 21.3692 28.0254 21.3291C27.3642 21.2889 26.811 21.5385 26.7899 21.8865C26.7688 22.2345 27.2877 22.5491 27.9489 22.5893C28.6101 22.6294 29.1632 22.3799 29.1843 22.0319Z" fill="#F9BF2C"/>
<path d="M17.2672 24.5835C17.8949 24.372 18.3135 23.9326 18.2022 23.6023C18.0908 23.2719 17.4917 23.1756 16.864 23.3872C16.2363 23.5988 15.8177 24.0381 15.9291 24.3684C16.0405 24.6988 16.6396 24.7951 17.2672 24.5835Z" fill="#F9A823"/>
<path d="M29.7137 23.5493C29.7698 23.2052 29.2853 22.8398 28.6316 22.7331C27.9778 22.6265 27.4023 22.819 27.3461 23.1631C27.29 23.5072 27.7745 23.8726 28.4283 23.9792C29.0821 24.0859 29.6576 23.8934 29.7137 23.5493Z" fill="#F9A823"/>
<path d="M32.4469 24.703C32.5831 24.382 32.1991 23.9121 31.5893 23.6534C30.9795 23.3947 30.3748 23.4451 30.2386 23.766C30.1025 24.087 30.4864 24.5569 31.0962 24.8156C31.706 25.0744 32.3107 25.0239 32.4469 24.703Z" fill="#F9A823"/>
<path d="M31.5804 22.6141C31.6846 22.2814 31.2566 21.8512 30.6245 21.6532C29.9924 21.4552 29.3955 21.5644 29.2913 21.8971C29.1871 22.2298 29.615 22.66 30.2472 22.858C30.8793 23.056 31.4762 22.9468 31.5804 22.6141Z" fill="#F9A823"/>
<path d="M15.6362 22.9818C16.2064 22.6445 16.5246 22.1278 16.3471 21.8277C16.1696 21.5277 15.5635 21.5578 14.9934 21.8951C14.4232 22.2324 14.105 22.7491 14.2825 23.0492C14.46 23.3492 15.0661 23.3191 15.6362 22.9818Z" fill="#F9A823"/>
<path d="M14.858 24.8375C15.4282 24.5002 15.7464 23.9835 15.5689 23.6834C15.3914 23.3834 14.7853 23.4136 14.2152 23.7508C13.645 24.0881 13.3268 24.6048 13.5043 24.9049C13.6818 25.205 14.2879 25.1748 14.858 24.8375Z" fill="#F9A823"/>
<path d="M34.087 30.0133L33.9213 28.6008L34.6788 28.7586L34.4815 30.6918L34.087 30.0133Z" fill="#568B3E"/>
<path d="M13.7923 29.8791L12.2457 29.2715L12.8217 27.6382L14.0764 29.453L13.7923 29.8791Z" fill="#568B3E"/>
<path d="M15.2284 29.6029L15.0627 28.1905L15.8124 27.4724L16.128 29.6266L15.2284 29.6029Z" fill="#568B3E"/>
<path d="M23.4662 28.522L23.3005 27.1175L24.058 26.3994L24.0738 27.4725L24.0896 28.5457L23.4662 28.522Z" fill="#568B3E"/>
<path d="M25.936 28.364L25.36 28.5455L25.2337 27.2119L26.0938 26.8884L25.936 28.364Z" fill="#568B3E"/>
<path d="M30.3074 28.9795L30.0707 27.8591L31.491 27.4724L31.2937 29.4609L30.3074 28.9795Z" fill="#568B3E"/>
<path d="M14.3704 26.9201C15.2621 26.2888 15.9722 27.2121 15.7907 27.6539C15.6803 27.9301 15.4199 28.1037 15.4988 28.4272C15.5777 28.7428 15.8381 28.7981 16.3036 28.7665C16.8244 28.7349 17.1085 28.3325 17.1795 27.9774C17.4951 26.3914 18.4735 26.0442 19.2074 26.4072C19.8071 26.7071 19.1443 27.2752 19.6887 27.4961C20.32 27.7486 20.6829 27.5987 20.9828 27.2436C21.2116 26.9753 20.9118 26.5256 21.3615 25.9732C22.1032 25.05 23.9023 25.6103 24.0838 26.2494C24.2653 26.8885 23.6656 26.9201 23.6419 27.4724C23.6182 28.0248 24.6677 28.3246 25.1964 28.1037C26.2853 27.6539 25.1411 27.7013 25.2358 26.999C25.37 26.0364 26.7429 26.3362 27.0585 26.5256C27.895 27.0227 27.5872 27.4488 27.7924 27.7565C28.2816 28.4667 29.0154 28.08 29.3942 27.8591C29.7729 27.6381 29.8518 26.6992 31.0196 27.0542C31.8166 27.2989 31.4852 27.867 31.1617 28.2221C31.0118 28.3878 31.067 28.6481 31.2721 28.7428C32.0375 29.0821 32.6293 28.5692 33.0475 28.3325C33.5446 28.0563 34.2785 28.0958 34.6257 28.4667C35.036 28.9164 33.7577 29.1689 34.2627 29.6187C34.6809 29.9896 35.2411 29.4214 35.3516 29.2636C35.9986 28.3956 36.9692 30.0132 36.2038 30.4709C35.2332 31.0548 36.5825 31.1258 36.5825 31.4256C36.5904 33.9822 35.4384 35.2447 34.3889 35.9549C33.3395 36.665 13.9601 37.6987 11.2773 36.0732C10.1253 35.371 9.39933 32.1121 10.141 31.4651C10.8749 30.8181 9.99113 30.7471 10.2436 30.0606C10.5119 29.3267 10.7407 29.9343 11.009 29.6581C11.3957 29.2557 11.2457 29.019 11.0564 28.7428C10.8591 28.4509 11.8928 27.5119 12.5793 27.5119C13.2578 27.5119 12.453 28.3404 12.887 28.5613C13.321 28.7823 13.605 28.585 14.0706 28.1353C14.5282 27.7092 13.8496 27.291 14.3704 26.9201Z" fill="url(#paint10_linear_25_22)"/>
<path opacity="0.5" d="M34.379 35.9707C33.2901 36.673 14.5419 37.8724 11.2673 36.0891C9.89436 35.3395 9.83124 32.1122 9.83124 32.1122L10.423 30.9681C10.423 30.9681 11.2594 32.7198 11.9301 32.9644C12.6008 33.209 11.1884 29.0112 11.1884 29.0112C11.1884 29.0112 13.5951 32.4673 14.5498 32.562C15.5046 32.6567 15.3231 28.7666 15.3231 28.7666C15.3231 28.7666 16.7276 34.0533 17.5483 34.1007C18.3768 34.148 18.2111 28.3247 18.8976 27.725C19.5762 27.1254 20.886 34.9292 21.7145 35.3237C22.543 35.7104 22.3221 28.5536 23.1348 27.725C24.0659 26.7861 23.3321 33.8482 24.7998 34.2427C26.2358 34.6372 25.9202 28.5772 27.5457 28.1985C28.4215 27.9933 27.1827 34.0454 28.4215 34.2427C30.5362 34.582 30.9544 29.4057 32.0986 29.0428C32.8245 28.8139 32.0512 33.8245 32.5326 34.1954C33.1638 34.6767 36.5726 31.6861 36.5726 31.6861C36.5726 31.6861 36.6515 34.5031 34.379 35.9707Z" fill="url(#paint11_linear_25_22)"/>
<path d="M35.2497 36.8306C35.9046 38.5113 35.9046 42.1016 35.9046 42.1016C35.9046 42.1016 29.3712 43.8138 23.3033 43.8138C17.3538 43.8138 10.7493 42.1016 10.7493 42.1016C10.7493 42.1016 10.7493 38.6849 11.3569 36.8306C12.5721 33.1378 16.3438 29.8474 23.3033 29.8474C30.2628 29.8474 33.8294 33.193 35.2497 36.8306Z" fill="url(#paint12_radial_25_22)"/>
<path d="M35.9018 41.5731C35.9018 45.4316 32.3747 43.9876 22.9296 43.9876C13.4845 43.9876 10.6992 45.4316 10.6992 41.5731C10.6992 37.7145 16.341 34.5898 23.3005 34.5898C30.26 34.5898 35.9018 37.7224 35.9018 41.5731Z" fill="url(#paint13_linear_25_22)"/>
<path d="M32.6115 39.9791L34.158 39.3795L33.582 37.7461L32.3274 39.5531L32.6115 39.9791Z" fill="#568B3E"/>
<path d="M31.1753 39.7108L31.341 38.2984L30.5835 37.5803L30.2758 39.7266L31.1753 39.7108Z" fill="#568B3E"/>
<path d="M22.9296 38.6297L23.1032 37.2251L22.3457 36.5071L22.3221 37.5802L22.3063 38.6533L22.9296 38.6297Z" fill="#568B3E"/>
<path d="M20.4599 38.4719L21.0438 38.6534L21.17 37.3199L20.3099 36.9963L20.4599 38.4719Z" fill="#568B3E"/>
<path d="M16.0963 39.0874L16.3252 37.9591L14.9048 37.5803L15.11 39.5687L16.0963 39.0874Z" fill="#568B3E"/>
<path d="M32.0275 37.0278C31.1359 36.3965 30.4257 37.3197 30.6072 37.7616C30.7177 38.0378 30.9781 38.2114 30.8992 38.5349C30.8203 38.8505 30.5599 38.9057 30.0943 38.8742C29.5735 38.8426 29.2895 38.4402 29.2185 38.0851C28.9028 36.4991 27.9244 36.1519 27.1906 36.5149C26.5909 36.8147 27.2537 37.3828 26.7092 37.6038C26.078 37.8563 25.715 37.7064 25.4152 37.3513C25.1864 37.083 25.4862 36.6332 25.0364 36.0809C24.2947 35.1577 22.4956 35.7179 22.3142 36.3571C22.1327 36.9962 22.7324 37.0278 22.756 37.5801C22.7797 38.1325 21.7303 38.4323 21.2016 38.2114C20.1127 37.7616 21.2568 37.8089 21.1621 37.1067C21.028 36.144 19.655 36.4439 19.3394 36.6332C18.503 37.1303 18.8107 37.5564 18.6056 37.8642C18.1163 38.5743 17.3825 38.1877 17.0038 37.9667C16.625 37.7458 16.5461 36.8068 15.3783 37.1619C14.5813 37.4065 14.9128 37.9746 15.2363 38.3297C15.3862 38.4954 15.331 38.7558 15.1258 38.8505C14.3604 39.1898 13.7686 38.6769 13.3504 38.4402C12.8533 38.164 12.1195 38.2035 11.7723 38.5743C11.362 39.0241 12.6403 39.2766 12.1353 39.7264C11.717 40.0972 11.1568 39.5291 11.0463 39.3713C10.3993 38.5033 9.42877 40.1209 10.1942 40.5785C11.1647 41.1625 9.81541 41.2335 9.81541 41.5333C9.80752 44.0899 10.9595 45.3524 12.009 46.0625C13.0585 46.7727 32.4378 47.8064 35.1207 46.1809C36.2727 45.4786 36.9986 42.2198 36.2569 41.5728C35.5231 40.9257 36.4068 40.8547 36.1543 40.1682C35.886 39.4344 35.6572 40.042 35.3889 39.7658C35.0023 39.3634 35.1522 39.1267 35.3416 38.8505C35.5389 38.5585 34.5052 37.6196 33.8187 37.6196C33.1401 37.6196 33.9449 38.4481 33.511 38.669C33.077 38.89 32.7929 38.6927 32.3274 38.2429C31.8697 37.8168 32.5562 37.3986 32.0275 37.0278Z" fill="url(#paint14_linear_25_22)"/>
<path opacity="0.5" d="M36.6514 44.6898L10.7465 44.5399L9.28674 39.7581C9.28674 39.7581 9.9101 39.8923 10.7465 40.2316C11.5829 40.5709 11.575 41.7229 12.2457 41.9675C12.9164 42.2121 12.2457 38.6614 12.2457 38.6614C12.2457 38.6614 14.4235 42.9539 15.3783 43.0485C16.3331 43.1432 15.2599 38.3221 15.2599 38.3221C15.2599 38.3221 16.7276 41.8334 17.5561 41.8886C18.3846 41.9439 18.0848 37.9039 18.7713 37.3042C19.4499 36.7045 20.8938 42.725 21.7224 43.1196C22.5509 43.5062 22.2668 38.3378 23.0796 37.5093C24.0106 36.5703 23.3399 41.644 24.8076 42.0385C26.2437 42.4331 25.7466 37.9907 27.3721 37.6119C28.2479 37.4067 27.1985 41.8413 28.4294 42.0385C30.5441 42.3778 31.199 39.3163 32.3431 38.9533C33.0691 38.7245 32.0591 41.6203 32.5483 41.9912C33.1796 42.4725 36.32 39.4425 36.32 39.4425L36.6514 44.6898Z" fill="url(#paint15_linear_25_22)"/>
<path d="M19.0516 12.1782C19.7556 12.1245 20.3034 11.7815 20.2752 11.4122C20.247 11.0428 19.6535 10.787 18.9496 10.8407C18.2456 10.8944 17.6978 11.2374 17.726 11.6067C17.7542 11.9761 18.3477 12.232 19.0516 12.1782Z" fill="#FDD836"/>
<path d="M20.7842 12.9593C21.4447 12.9089 21.9586 12.5862 21.9321 12.2386C21.9055 11.891 21.3486 11.6501 20.6881 11.7005C20.0277 11.7509 19.5138 12.0735 19.5403 12.4212C19.5668 12.7688 20.1237 13.0097 20.7842 12.9593Z" fill="#F9BF2C"/>
<path d="M24.2388 11.537C24.2482 11.1667 23.6837 10.852 22.9779 10.834C22.2722 10.8161 21.6924 11.1018 21.683 11.4721C21.6736 11.8424 22.2381 12.1571 22.9439 12.175C23.6496 12.193 24.2294 11.9073 24.2388 11.537Z" fill="#FDD836"/>
<path d="M27.8861 12.36C27.895 12.0115 27.3653 11.7153 26.7031 11.6985C26.0409 11.6817 25.4969 11.9506 25.4881 12.2991C25.4792 12.6476 26.0089 12.9438 26.6711 12.9606C27.3333 12.9775 27.8773 12.7086 27.8861 12.36Z" fill="#F9BF2C"/>
<path d="M23.5362 13.5295C24.1978 13.4961 24.7198 13.1868 24.7022 12.8386C24.6847 12.4905 24.1341 12.2353 23.4726 12.2687C22.8111 12.302 22.289 12.6114 22.3066 12.9595C22.3242 13.3077 22.8747 13.5629 23.5362 13.5295Z" fill="#FDD836"/>
<path d="M17.8092 13.4725C18.4117 13.1973 18.7827 12.7171 18.6379 12.4C18.493 12.0829 17.8871 12.0489 17.2846 12.3242C16.6821 12.5994 16.3111 13.0796 16.4559 13.3967C16.6008 13.7138 17.2067 13.7478 17.8092 13.4725Z" fill="#F9BF2C"/>
<path d="M17.2677 15.0437C17.8954 14.8322 18.314 14.3928 18.2026 14.0625C18.0913 13.7321 17.4922 13.6358 16.8645 13.8474C16.2368 14.059 15.8182 14.4983 15.9296 14.8286C16.0409 15.159 16.6401 15.2553 17.2677 15.0437Z" fill="#F9A823"/>
<path d="M29.7144 14.0083C29.7706 13.6642 29.2861 13.2988 28.6323 13.1921C27.9785 13.0855 27.403 13.278 27.3469 13.6221C27.2907 13.9662 27.7752 14.3316 28.429 14.4382C29.0828 14.5449 29.6583 14.3524 29.7144 14.0083Z" fill="#F9A823"/>
<path d="M31.5814 13.0733C31.6856 12.7406 31.2576 12.3104 30.6255 12.1124C29.9934 11.9144 29.3965 12.0236 29.2923 12.3563C29.1881 12.689 29.616 13.1192 30.2481 13.3172C30.8803 13.5152 31.4772 13.406 31.5814 13.0733Z" fill="#F9A823"/>
<path d="M15.6364 13.4412C16.2065 13.104 16.5248 12.5873 16.3473 12.2872C16.1698 11.9871 15.5637 12.0173 14.9935 12.3546C14.4234 12.6919 14.1052 13.2086 14.2827 13.5086C14.4602 13.8087 15.0663 13.7785 15.6364 13.4412Z" fill="#F9A823"/>
<path d="M14.8583 15.2972C15.4284 14.9599 15.7467 14.4432 15.5691 14.1432C15.3916 13.8431 14.7855 13.8733 14.2154 14.2106C13.6453 14.5479 13.327 15.0645 13.5045 15.3646C13.6821 15.6647 14.2881 15.6345 14.8583 15.2972Z" fill="#F9A823"/>
<path d="M20.6353 31.7074C21.2958 31.657 21.8097 31.3343 21.7832 30.9867C21.7566 30.6391 21.1997 30.3981 20.5392 30.4485C19.8787 30.4989 19.3648 30.8216 19.3914 31.1692C19.4179 31.5168 19.9748 31.7578 20.6353 31.7074Z" fill="#FDD836"/>
<path d="M20.7852 32.9383C21.4457 32.8879 21.9596 32.5652 21.9331 32.2176C21.9065 31.87 21.3496 31.6291 20.6891 31.6795C20.0286 31.7299 19.5147 32.0526 19.5413 32.4002C19.5678 32.7478 20.1247 32.9887 20.7852 32.9383Z" fill="#F9BF2C"/>
<path d="M25.4978 31.1059C25.5067 30.7574 24.977 30.4612 24.3148 30.4444C23.6526 30.4275 23.1086 30.6964 23.0998 31.045C23.0909 31.3935 23.6206 31.6897 24.2828 31.7065C24.945 31.7233 25.4889 31.4544 25.4978 31.1059Z" fill="#FDD836"/>
<path d="M27.8918 32.3339C27.9006 31.9854 27.371 31.6892 26.7088 31.6724C26.0466 31.6556 25.5026 31.9245 25.4938 32.273C25.4849 32.6215 26.0145 32.9177 26.6767 32.9345C27.3389 32.9513 27.8829 32.6824 27.8918 32.3339Z" fill="#F9BF2C"/>
<path d="M23.5358 33.508C24.1973 33.4746 24.7194 33.1653 24.7018 32.8172C24.6842 32.469 24.1337 32.2138 23.4722 32.2472C22.8106 32.2806 22.2886 32.5899 22.3062 32.938C22.3237 33.2862 22.8743 33.5414 23.5358 33.508Z" fill="#FDD836"/>
<path d="M27.985 31.2493C28.0353 30.9044 27.5448 30.5472 26.8894 30.4515C26.2339 30.3559 25.6618 30.558 25.6114 30.903C25.5611 31.2479 26.0516 31.6051 26.707 31.7008C27.3625 31.7964 27.9346 31.5943 27.985 31.2493Z" fill="#FDD836"/>
<path d="M17.8104 33.4518C18.4129 33.1766 18.7839 32.6964 18.6391 32.3793C18.4942 32.0622 17.8884 32.0282 17.2858 32.3034C16.6833 32.5786 16.3123 33.0588 16.4572 33.3759C16.602 33.6931 17.2079 33.727 17.8104 33.4518Z" fill="#F9BF2C"/>
<path d="M17.2692 35.0222C17.8969 34.8107 18.3155 34.3714 18.2041 34.041C18.0928 33.7106 17.4936 33.6143 16.866 33.8259C16.2383 34.0375 15.8197 34.4768 15.9311 34.8072C16.0424 35.1375 16.6415 35.2338 17.2692 35.0222Z" fill="#F9A823"/>
<path d="M29.7205 33.9831C29.7766 33.639 29.2921 33.2736 28.6383 33.167C27.9845 33.0603 27.409 33.2528 27.3529 33.5969C27.2968 33.941 27.7813 34.3064 28.4351 34.4131C29.0889 34.5197 29.6644 34.3272 29.7205 33.9831Z" fill="#F9A823"/>
<path d="M33.4454 35.1601C33.5726 34.8355 33.1757 34.3764 32.559 34.1347C31.9422 33.893 31.3391 33.9602 31.2119 34.2848C31.0847 34.6094 31.4815 35.0685 32.0983 35.3102C32.7151 35.5519 33.3182 35.4847 33.4454 35.1601Z" fill="#F9A823"/>
<path d="M31.5868 33.0487C31.691 32.716 31.263 32.2858 30.6309 32.0878C29.9987 31.8898 29.4018 31.999 29.2976 32.3317C29.1934 32.6644 29.6214 33.0946 30.2535 33.2926C30.8856 33.4906 31.4825 33.3814 31.5868 33.0487Z" fill="#F9A823"/>
<path d="M15.64 33.4203C16.2101 33.083 16.5284 32.5663 16.3509 32.2662C16.1734 31.9661 15.5673 31.9963 14.9971 32.3336C14.427 32.6709 14.1088 33.1876 14.2863 33.4877C14.4638 33.7877 15.0699 33.7575 15.64 33.4203Z" fill="#F9A823"/>
<path d="M14.556 35.6707C15.1261 35.3334 15.4444 34.8168 15.2668 34.5167C15.0893 34.2166 14.4832 34.2468 13.9131 34.5841C13.343 34.9214 13.0247 35.4381 13.2022 35.7381C13.3798 36.0382 13.9858 36.008 14.556 35.6707Z" fill="#F9A823"/>
<path d="M89.1477 55.6738C88.9347 53.8984 87.2224 54.0641 87.1041 54.0956C86.8121 53.417 85.8968 53.3381 85.1156 53.3381C84.7448 53.3381 84.3029 53.4486 83.9005 53.638C83.4665 53.8431 82.9773 53.8431 82.5433 53.638C82.1409 53.4486 81.699 53.3381 81.3281 53.3381C80.9573 53.3381 80.5154 53.4486 80.113 53.638C79.679 53.8431 79.1898 53.8431 78.7558 53.638C78.3534 53.4486 77.9115 53.3381 77.5406 53.3381C77.1698 53.3381 76.7279 53.4486 76.3255 53.638C75.8915 53.8431 75.4023 53.8431 74.9683 53.638C74.5659 53.4486 74.124 53.3381 73.7531 53.3381C73.3823 53.3381 72.9404 53.4486 72.538 53.638C72.104 53.8431 71.6148 53.8431 71.1808 53.638C70.7784 53.4486 70.3365 53.3381 69.9656 53.3381C69.1766 53.3381 68.1034 53.4486 67.8115 54.1351C67.6852 54.1035 66.3912 54.4034 65.9808 55.5317C65.468 56.2182 65.1602 57.0704 65.1602 58.0015V74.6192C65.1602 76.9074 67.0145 78.7617 69.3028 78.7617H85.6995C87.9878 78.7617 89.8421 76.9074 89.8421 74.6192V57.9857C89.8579 57.1335 89.5975 56.3366 89.1477 55.6738Z" fill="url(#paint16_linear_25_22)"/>
<g opacity="0.2">
<path opacity="0.2" d="M72.6879 61.071C72.2855 61.1814 71.0546 61.6075 70.6679 61.5523C69.1924 61.3314 67.9851 60.2819 67.5432 59.4613C67.1724 58.7669 68.7978 58.6801 68.9241 58.901C69.6027 60.132 71.6937 59.2009 72.5932 59.2719C74.1003 59.3903 75.2129 60.3608 72.6879 61.071Z" fill="#434343"/>
</g>
<path d="M73.7216 60.061C73.7216 60.061 73.4217 60.4397 71.5675 60.4239L66.983 56.6996C66.6516 56.4155 67.2986 55.9105 67.701 55.6896L67.9535 55.5554C68.1587 55.4449 68.4112 55.4134 68.64 55.4765L74.5501 57.0389C74.9999 57.1572 75.2208 57.5675 75.0235 57.9147L73.982 59.8085C73.9267 59.911 73.8321 59.9978 73.7216 60.061Z" fill="#F47C20"/>
<path d="M71.4176 60.4002L68.0877 59.6585C67.9062 59.6191 67.7642 59.5007 67.709 59.3587L66.7858 56.6995C66.6674 56.3602 67.0777 56.0525 67.488 56.1709L72.8536 57.7411C73.1377 57.8279 73.2797 58.0804 73.1772 58.3092L72.3644 60.0136C72.2303 60.3213 71.8121 60.487 71.4176 60.4002Z" fill="#F37021"/>
<g opacity="0.2">
<path opacity="0.2" d="M73.2166 66.6891C73.5953 66.8391 73.5243 67.4861 75.5128 67.3835C77.5012 67.2809 79.3081 66.7523 79.8684 65.7186C80.2392 65.0242 78.6138 64.9374 78.4875 65.1584C77.8089 66.3893 75.7179 65.4582 74.8184 65.5292C73.3034 65.6555 72.6564 66.4761 73.2166 66.6891Z" fill="#434343"/>
</g>
<path d="M74.4396 66.6339L79.1109 65.466L79.4265 63.738L78.0851 62.6649C77.9115 62.5228 77.7064 62.4439 77.4854 62.4203L73.9504 62.0889C73.5322 62.223 72.8299 63.1304 73.0114 63.5328L73.2481 65.9947L74.4396 66.6339Z" fill="#F47C20"/>
<path d="M75.0472 66.6103L78.7401 65.8291C79.0004 65.7739 79.2135 65.6003 79.324 65.3557L79.6238 64.6771C79.8526 64.1563 79.5054 63.5645 78.9373 63.5172L75.0393 63.17C74.5738 63.1305 74.1635 63.4856 74.1398 63.9512L74.0451 65.7581C74.0215 66.3026 74.5186 66.7287 75.0472 66.6103Z" fill="#F37021"/>
<g opacity="0.2">
<path opacity="0.2" d="M82.8037 74.193C83.1825 74.343 83.1114 74.99 85.0999 74.8874C87.0883 74.7848 88.8953 74.2562 89.4555 73.2225C89.8264 72.5281 88.2009 72.4413 88.0746 72.6623C87.3961 73.8932 85.305 72.9621 84.4055 73.0331C82.8905 73.1515 82.2514 73.9721 82.8037 74.193Z" fill="#434343"/>
</g>
<path d="M84.0267 74.1379L88.698 72.9701L89.0136 71.242L87.6722 70.1689C87.4986 70.0269 87.2935 69.948 87.0725 69.9243L83.0799 70.5319C82.6617 70.666 81.9594 71.5735 82.1409 71.9759L82.8274 73.4988L84.0267 74.1379Z" fill="#F47C20"/>
<path d="M84.6422 74.1141L88.335 73.3329C88.5954 73.2777 88.8085 73.1041 88.9189 72.8595L89.2188 72.1809C89.4476 71.6601 89.1004 71.0683 88.5323 71.021L84.082 71.3129C83.6164 71.2735 83.2061 71.6286 83.1824 72.0941L83.6322 73.2619C83.6164 73.8064 84.1056 74.2325 84.6422 74.1141Z" fill="#F37021"/>
<g opacity="0.2">
<path opacity="0.2" d="M74.9604 77.31C74.5817 77.4599 74.6527 78.1069 72.6642 78.0044C70.6758 77.9018 68.8688 77.3731 68.3086 76.3394C67.9377 75.6451 69.5632 75.5583 69.6895 75.7792C70.3681 77.0101 72.4591 76.0791 73.3586 76.1501C74.8736 76.2684 75.5128 77.0891 74.9604 77.31Z" fill="#434343"/>
</g>
<path d="M73.7374 77.2468L69.0661 76.079L68.7505 74.3509L70.0919 73.2778C70.2655 73.1358 70.4706 73.0569 70.6916 73.0332L74.6842 73.6408C75.1024 73.7749 75.8047 74.6823 75.6232 75.0848L74.9367 76.6077L73.7374 77.2468Z" fill="#F47C20"/>
<path d="M73.1219 77.2311L69.4291 76.4499C69.1687 76.3947 68.9556 76.2211 68.8452 75.9765L68.5453 75.2979C68.3165 74.7771 68.6637 74.1853 69.2318 74.1379L73.6821 74.4299C74.1477 74.3904 74.558 74.7455 74.5816 75.2111L74.1319 76.3789C74.1477 76.9233 73.6584 77.3415 73.1219 77.2311Z" fill="#F37021"/>
<path d="M69.4212 60.6765C69.6027 61.0316 70.1314 61.2841 70.1314 61.2841L72.1435 60.8895C72.1435 60.8895 72.3644 60.7081 72.4591 60.5976C72.7984 60.1952 71.9383 58.1357 70.8416 58.6328C69.7448 59.1299 69.0977 60.0374 69.4212 60.6765Z" fill="#FCB316"/>
<path d="M70.3348 60.6926C70.7284 60.5791 71.0123 60.365 70.9688 60.2142C70.9254 60.0635 70.5711 60.0332 70.1774 60.1467C69.7838 60.2601 69.4999 60.4743 69.5434 60.625C69.5868 60.7758 69.9411 60.806 70.3348 60.6926Z" fill="#F78F1E"/>
<path d="M80.3261 66.0815C79.6948 65.5134 79.0872 65.8133 78.4481 66.1762C78.0693 66.3893 77.6906 66.7601 77.5249 67.2572C77.3592 67.7543 78.8979 69.3719 79.7422 68.5039C80.5865 67.636 80.8626 66.555 80.3261 66.0815Z" fill="#FCB316"/>
<path d="M79.8055 66.8436C80.1316 66.5957 80.319 66.2935 80.2241 66.1686C80.1291 66.0437 79.7878 66.1434 79.4617 66.3913C79.1356 66.6391 78.9482 66.9413 79.0431 67.0662C79.138 67.1911 79.4794 67.0914 79.8055 66.8436Z" fill="#F78F1E"/>
<path d="M83.4902 77.3415C83.7743 78.1385 84.445 78.1779 85.1788 78.17C85.6128 78.1621 86.1257 78.028 86.5123 77.6729C86.899 77.3178 86.3308 75.1637 85.1788 75.5109C84.0189 75.8581 83.2535 76.6629 83.4902 77.3415Z" fill="#FCB316"/>
<path d="M84.3916 77.4884C84.7969 77.4291 85.1071 77.2552 85.0843 77.1C85.0616 76.9447 84.7146 76.867 84.3093 76.9263C83.904 76.9856 83.5938 77.1595 83.6165 77.3148C83.6392 77.47 83.9862 77.5478 84.3916 77.4884Z" fill="#F78F1E"/>
<path d="M65.2865 73.1042C65.5706 73.9011 66.2413 73.9406 66.9751 73.9327C67.4091 73.9248 67.922 73.7907 68.3086 73.4356C68.6953 73.0805 68.1271 70.9264 66.9751 71.2736C65.8152 71.6129 65.0498 72.4256 65.2865 73.1042Z" fill="#FCB316"/>
<path d="M66.188 73.2499C66.5934 73.1906 66.9035 73.0167 66.8808 72.8614C66.8581 72.7062 66.5111 72.6284 66.1058 72.6878C65.7004 72.7471 65.3902 72.921 65.413 73.0762C65.4357 73.2315 65.7827 73.3092 66.188 73.2499Z" fill="#F78F1E"/>
<path opacity="0.2" d="M86.0704 59.1297C86.7633 59.1297 87.325 58.8295 87.325 58.459C87.325 58.0886 86.7633 57.7883 86.0704 57.7883C85.3775 57.7883 84.8158 58.0886 84.8158 58.459C84.8158 58.8295 85.3775 59.1297 86.0704 59.1297Z" fill="#434343"/>
<path d="M86.0546 58.4196C86.7475 58.4196 87.3092 57.8579 87.3092 57.165C87.3092 56.4721 86.7475 55.9104 86.0546 55.9104C85.3617 55.9104 84.8 56.4721 84.8 57.165C84.8 57.8579 85.3617 58.4196 86.0546 58.4196Z" fill="url(#paint17_radial_25_22)"/>
<path opacity="0.2" d="M69.6974 67.1703C70.3902 67.1703 70.952 66.87 70.952 66.4996C70.952 66.1291 70.3902 65.8289 69.6974 65.8289C69.0045 65.8289 68.4427 66.1291 68.4427 66.4996C68.4427 66.87 69.0045 67.1703 69.6974 67.1703Z" fill="#434343"/>
<path d="M69.6816 66.4521C70.3745 66.4521 70.9362 65.8904 70.9362 65.1975C70.9362 64.5046 70.3745 63.9429 69.6816 63.9429C68.9887 63.9429 68.427 64.5046 68.427 65.1975C68.427 65.8904 68.9887 66.4521 69.6816 66.4521Z" fill="url(#paint18_radial_25_22)"/>
<path opacity="0.2" d="M83.6006 69.0086C84.2935 69.0086 84.8552 68.7083 84.8552 68.3379C84.8552 67.9675 84.2935 67.6672 83.6006 67.6672C82.9077 67.6672 82.346 67.9675 82.346 68.3379C82.346 68.7083 82.9077 69.0086 83.6006 69.0086Z" fill="#434343"/>
<path d="M83.5848 68.2985C84.2777 68.2985 84.8394 67.7368 84.8394 67.0439C84.8394 66.351 84.2777 65.7893 83.5848 65.7893C82.8919 65.7893 82.3302 66.351 82.3302 67.0439C82.3302 67.7368 82.8919 68.2985 83.5848 68.2985Z" fill="url(#paint19_radial_25_22)"/>
<path opacity="0.2" d="M78.9767 77.5306C79.6696 77.5306 80.2313 77.2303 80.2313 76.8599C80.2313 76.4895 79.6696 76.1892 78.9767 76.1892C78.2838 76.1892 77.7221 76.4895 77.7221 76.8599C77.7221 77.2303 78.2838 77.5306 78.9767 77.5306Z" fill="#434343"/>
<path d="M78.9609 76.8205C79.6538 76.8205 80.2155 76.2588 80.2155 75.5659C80.2155 74.873 79.6538 74.3113 78.9609 74.3113C78.268 74.3113 77.7063 74.873 77.7063 75.5659C77.7063 76.2588 78.268 76.8205 78.9609 76.8205Z" fill="url(#paint20_radial_25_22)"/>
<path opacity="0.2" d="M86.2361 63.0592C86.2361 63.5879 85.6127 63.8246 84.0109 63.651C82.8747 63.5327 82.4723 63.6826 82.4723 63.1539C82.4723 62.6253 82.4328 61.2996 84.0583 61.0866C85.6837 60.8814 86.2361 62.2702 86.2361 63.0592Z" fill="#434343"/>
<path d="M84.153 62.2545C85.0762 62.286 86.0388 63.2329 86.0783 63.1698C86.173 63.0278 86.0073 61.6232 85.7627 61.4733L84.1687 60.5264C83.9794 60.416 83.7348 60.4712 83.6085 60.6606L82.6537 61.9467L82.6932 63.2724C83.1903 63.3986 83.2298 62.2229 84.153 62.2545Z" fill="#AF5C2B"/>
<path d="M83.8768 63.2883C83.9952 63.3277 84.4765 63.4855 84.7763 63.4619C85.2182 63.4224 85.2734 63.2725 85.7706 63.312C86.2361 63.3514 86.1099 62.9806 85.7863 62.7912L84.1924 61.8443C84.0031 61.7338 83.7584 61.7891 83.6322 61.9784L82.6774 63.2646C83.3639 63.5171 83.4981 63.1541 83.8768 63.2883Z" fill="#8B4A22"/>
<path d="M83.9557 61.7178H83.9399C83.8215 61.7178 83.7347 61.6231 83.7347 61.5126V60.7393C83.7347 60.621 83.8294 60.5342 83.9399 60.5342H83.9557C84.074 60.5342 84.1608 60.6289 84.1608 60.7393V61.5126C84.1687 61.6231 84.074 61.7178 83.9557 61.7178Z" fill="#C56E39"/>
<path opacity="0.2" d="M80.3655 60.0451C80.3655 60.5738 79.7421 60.8105 78.1403 60.6369C77.0041 60.5185 76.6016 60.6684 76.6016 60.1398C76.6016 59.6111 76.5622 58.2855 78.1877 58.0724C79.8131 57.8673 80.3655 59.256 80.3655 60.0451Z" fill="#434343"/>
<path d="M78.2823 59.2401C79.2055 59.2716 80.1681 60.2185 80.2076 60.1554C80.3023 60.0134 80.1366 58.6088 79.892 58.4589L78.2981 57.512C78.1087 57.4016 77.8641 57.4568 77.7378 57.6462L76.7831 58.9323L76.8225 60.258C77.3196 60.3842 77.3591 59.2085 78.2823 59.2401Z" fill="#AF5C2B"/>
<path d="M78.0062 60.2739C78.1246 60.3133 78.6059 60.4711 78.9057 60.4475C79.3476 60.408 79.4028 60.2581 79.8999 60.2976C80.3655 60.337 80.2392 59.9662 79.9157 59.7768L78.3218 58.8299C78.1324 58.7194 77.8878 58.7747 77.7616 58.964L76.8068 60.2502C77.5012 60.5027 77.6275 60.1397 78.0062 60.2739Z" fill="#8B4A22"/>
<path d="M78.093 58.7034H78.0772C77.9588 58.7034 77.872 58.6087 77.872 58.4982V57.7249C77.872 57.6066 77.9667 57.5198 78.0772 57.5198H78.093C78.2113 57.5198 78.2981 57.6145 78.2981 57.7249V58.4982C78.2981 58.6166 78.2034 58.7034 78.093 58.7034Z" fill="#C56E39"/>
<path opacity="0.2" d="M74.0767 70.3656C74.0767 70.8943 73.4533 71.131 71.8515 70.9574C70.7152 70.8391 70.3128 70.989 70.3128 70.4603C70.3128 69.9317 70.2734 68.606 71.8988 68.393C73.5243 68.1957 74.0767 69.5845 74.0767 70.3656Z" fill="#434343"/>
<path d="M71.9856 69.5609C72.9088 69.5924 73.8715 70.5393 73.9109 70.4762C74.0056 70.3342 73.8399 68.9296 73.5953 68.7797L72.0014 67.8328C71.812 67.7224 71.5674 67.7776 71.4412 67.967L70.4864 69.2531L70.5258 70.5788C71.0308 70.705 71.0624 69.5293 71.9856 69.5609Z" fill="#AF5C2B"/>
<path d="M71.7174 70.5947C71.8357 70.6341 72.3171 70.792 72.6169 70.7683C73.0588 70.7288 73.114 70.5789 73.6111 70.6184C74.0767 70.6578 73.9504 70.287 73.6269 70.0976L72.033 69.1507C71.8436 69.0402 71.599 69.0955 71.4728 69.2848L70.518 70.571C71.2045 70.8235 71.3386 70.4605 71.7174 70.5947Z" fill="#8B4A22"/>
<path d="M71.7962 69.0322H71.7805C71.6621 69.0322 71.5753 68.9375 71.5753 68.8271V68.0538C71.5753 67.9354 71.67 67.8486 71.7805 67.8486H71.7962C71.9146 67.8486 72.0014 67.9433 72.0014 68.0538V68.8271C72.0014 68.9375 71.9146 69.0322 71.7962 69.0322Z" fill="#C56E39"/>
<path opacity="0.2" d="M84.366 28.2694C84.366 24.6239 79.4738 21.6729 73.4296 21.6729C67.3933 21.6729 62.4932 24.6239 62.4932 28.2694C62.4932 29.5871 63.1403 30.8102 64.2449 31.8439C62.3985 33.4693 61.2544 35.6629 61.2544 38.0775C61.2544 43.0959 66.1466 47.1675 72.1908 47.1675C78.2271 47.1675 83.1272 43.0959 83.1272 38.0775C83.1272 36.16 82.4091 34.3846 81.194 32.917C83.1509 31.7255 84.366 30.0843 84.366 28.2694Z" fill="#212121"/>
<path d="M72.6326 47.3253C77.8141 47.3253 82.0146 43.6901 82.0146 39.2059C82.0146 34.7216 77.8141 31.0864 72.6326 31.0864C67.4511 31.0864 63.2507 34.7216 63.2507 39.2059C63.2507 43.6901 67.4511 47.3253 72.6326 47.3253Z" fill="#1E5F30"/>
<path d="M72.6326 46.4572C77.8141 46.4572 82.0146 42.822 82.0146 38.3377C82.0146 33.8535 77.8141 30.2183 72.6326 30.2183C67.4511 30.2183 63.2507 33.8535 63.2507 38.3377C63.2507 42.822 67.4511 46.4572 72.6326 46.4572Z" fill="#4D803B"/>
<path d="M72.6326 44.8238C76.8989 44.8238 80.3575 41.8315 80.3575 38.1404C80.3575 34.4493 76.8989 31.457 72.6326 31.457C68.3662 31.457 64.9077 34.4493 64.9077 38.1404C64.9077 41.8315 68.3662 44.8238 72.6326 44.8238Z" fill="#B7CE7A"/>
<path d="M72.6327 42.9141C75.6788 42.9141 78.1482 40.7768 78.1482 38.1403C78.1482 35.5038 75.6788 33.3665 72.6327 33.3665C69.5865 33.3665 67.1171 35.5038 67.1171 38.1403C67.1171 40.7768 69.5865 42.9141 72.6327 42.9141Z" fill="#B3CA62"/>
<path d="M82.4565 9.813C83.9951 12.3143 82.7563 15.8967 79.6868 17.8141C76.6174 19.7315 72.8772 19.266 71.3307 16.7646C69.792 14.2633 71.0308 10.681 74.1003 8.76355C77.1697 6.84613 80.9178 7.31167 82.4565 9.813Z" fill="#568B3E"/>
<path opacity="0.2" d="M83.4743 36.4677C82.6143 39.0006 77.9272 39.695 73.0114 38.0064C68.0876 36.3178 64.7972 32.8932 65.6573 30.3603C66.5174 27.8275 71.2044 27.1331 76.1203 28.8217C81.0361 30.5103 84.3344 33.9348 83.4743 36.4677Z" fill="#212121"/>
<path d="M76.507 17.7591C75.1813 12.7564 71.0072 9.53702 67.1802 10.5628C63.3533 11.5886 61.3254 16.4808 62.6589 21.4755C63.9845 26.4782 68.1587 29.6976 71.9856 28.6718C75.8126 27.646 77.8326 22.7617 76.507 17.7591Z" fill="#1E5F30"/>
<path d="M72.7273 28.4745C68.9004 29.5003 64.7262 26.2809 63.4006 21.2783C62.075 16.2756 64.1029 11.3913 67.9219 10.3655C71.741 9.33975 75.923 12.5591 77.2487 17.5618C78.5822 22.5644 76.5543 27.4487 72.7273 28.4745Z" fill="#568B3E"/>
<path d="M72.467 26.8333C69.3186 27.6776 65.8783 25.0263 64.7894 20.9074C63.7005 16.7885 65.3654 12.7722 68.5138 11.92C71.6621 11.0678 75.1025 13.7269 76.1914 17.8458C77.2803 21.9647 75.6153 25.989 72.467 26.8333Z" fill="#CEE298"/>
<path d="M71.8988 24.7029C69.65 25.3105 67.196 23.4167 66.4148 20.4735C65.6337 17.5303 66.8251 14.6581 69.074 14.0584C71.3228 13.4587 73.7768 15.3446 74.558 18.2878C75.3391 21.2231 74.1476 24.0953 71.8988 24.7029Z" fill="#C4DC72"/>
<path d="M81.7069 9.67899C77.3118 7.83259 72.5301 9.26868 71.0309 12.8826C69.5316 16.4965 71.883 20.9231 76.2781 22.7695C80.6732 24.6159 85.4549 23.1799 86.9541 19.5659C88.4534 15.952 86.1098 11.5254 81.7069 9.67899Z" fill="#1E5F30"/>
<path d="M87.254 18.8636C85.7548 22.4775 80.981 23.9136 76.578 22.0671C72.1829 20.2207 69.8315 15.7941 71.3307 12.1802C72.8299 8.56629 77.6038 7.1302 82.0067 8.9766C86.4018 10.823 88.7532 15.2496 87.254 18.8636Z" fill="#568B3E"/>
<path d="M85.9047 18.1219C84.6737 21.0967 80.7363 22.2803 77.1145 20.7574C73.4927 19.2424 71.5595 15.5969 72.7904 12.6222C74.0214 9.6474 77.9588 8.4638 81.5806 9.98669C85.2024 11.5096 87.1435 15.1472 85.9047 18.1219Z" fill="#CEE298"/>
<path d="M84.4371 17.5063C83.4823 19.8183 80.4286 20.7336 77.6196 19.55C74.8105 18.3743 73.3113 15.5416 74.266 13.2375C75.2208 10.9334 78.2745 10.0102 81.0835 11.1938C83.8926 12.3695 85.3918 15.1944 84.4371 17.5063Z" fill="#C4DC72"/>
<path d="M82.5353 20.2604C77.8483 21.1442 74.6368 24.979 75.3549 28.8296C76.0729 32.6802 80.4522 35.0869 85.1314 34.2031C89.8184 33.3194 93.0299 29.4845 92.3118 25.6339C91.5938 21.7833 87.2224 19.3767 82.5353 20.2604Z" fill="#1E5F30"/>
<path d="M92.1777 24.4423C92.8958 28.2929 89.6764 32.1277 84.9973 33.0115C80.3102 33.8952 75.9388 31.4886 75.2208 27.638C74.5027 23.7873 77.7221 19.9525 82.4013 19.0688C87.0804 18.185 91.4597 20.5916 92.1777 24.4423Z" fill="#4D803B"/>
<path d="M90.647 24.5608C91.2387 27.7328 88.5875 30.8891 84.7369 31.615C80.8784 32.3409 77.2802 30.3604 76.6885 27.1963C76.0967 24.0242 78.7479 20.868 82.5985 20.142C86.4491 19.4082 90.0552 21.3888 90.647 24.5608Z" fill="#B7CE7A"/>
<path d="M89.4161 24.7893C89.9053 27.4011 87.7196 30.005 84.5475 30.5968C81.3755 31.1964 78.4007 29.5631 77.9194 26.9513C77.4302 24.3395 79.6159 21.7356 82.7879 21.1438C85.96 20.5441 88.9268 22.1775 89.4161 24.7893Z" fill="#B3CA62"/>
<path opacity="0.2" d="M53.6794 30.9522C59.7194 30.9522 64.6158 28.2249 64.6158 24.8606C64.6158 21.4963 59.7194 18.769 53.6794 18.769C47.6394 18.769 42.743 21.4963 42.743 24.8606C42.743 28.2249 47.6394 30.9522 53.6794 30.9522Z" fill="#212121"/>
<path d="M75.1971 22.8327C70.4075 20.8363 65.4838 21.7516 64.1976 24.8763C62.9114 28.001 65.752 32.1515 70.5338 34.1478C75.3234 36.1441 80.2471 35.2288 81.5333 32.1041C82.8195 28.9795 79.9788 24.829 75.1971 22.8327Z" fill="#1E5F30"/>
<path d="M81.8331 30.6207C80.547 33.7454 75.6232 34.6607 70.8336 32.6644C66.044 30.6681 63.2113 26.5176 64.4974 23.3929C65.7836 20.2682 70.7074 19.3529 75.497 21.3493C80.2866 23.3456 83.1193 27.4961 81.8331 30.6207Z" fill="#568B3E"/>
<path d="M80.3576 29.8474C79.3002 32.4197 75.2445 33.1694 71.307 31.5281C67.3696 29.8869 65.034 26.4702 66.0913 23.8979C67.1487 21.3255 71.2045 20.5759 75.1419 22.2172C79.0793 23.8663 81.4149 27.2829 80.3576 29.8474Z" fill="#F9EBBB"/>
<path d="M78.9925 29.2793C78.1324 31.3624 74.8578 31.97 71.67 30.6365C68.4822 29.3109 66.5963 26.5413 67.4485 24.466C68.3086 22.3829 71.5832 21.7753 74.771 23.1088C77.9588 24.4424 79.8526 27.2041 78.9925 29.2793Z" fill="#DEE67C"/>
<path d="M82.4565 32.6643C78.0535 33.1457 74.7316 35.8679 75.0472 38.7401C75.3549 41.6123 79.1819 43.5534 83.5848 43.0721C87.9878 42.5907 91.3097 39.8685 90.9941 36.9963C90.6864 34.1241 86.8594 32.183 82.4565 32.6643Z" fill="#1E5F30"/>
<path opacity="0.2" d="M91.1756 37.9511C91.4834 40.8233 88.1693 43.5456 83.7663 44.0269C79.3634 44.5082 75.5364 42.575 75.2287 39.6949C74.9209 36.8228 78.235 34.1005 82.638 33.6192C87.0409 33.1378 90.86 35.0789 91.1756 37.9511Z" fill="#212121"/>
<path d="M90.8363 36.1205C91.1441 38.9927 87.83 41.715 83.427 42.1963C79.0241 42.6777 75.1971 40.7445 74.8894 37.8644C74.5816 34.9922 77.8957 32.2699 82.2987 31.7886C86.7016 31.3073 90.5286 33.2484 90.8363 36.1205Z" fill="#568B3E"/>
<path d="M89.416 36.1522C89.6685 38.5193 86.9384 40.7603 83.3166 41.1548C79.6948 41.5493 76.5464 39.9554 76.286 37.5882C76.0335 35.2211 78.7637 32.9801 82.3855 32.5856C86.0073 32.1911 89.1556 33.785 89.416 36.1522Z" fill="#F9EBBB"/>
<path d="M88.1614 36.2941C88.3666 38.2116 86.1572 40.0185 83.2298 40.342C80.2945 40.6656 77.7537 39.3715 77.5407 37.462C77.3355 35.5445 79.5449 33.7376 82.4723 33.4141C85.4076 33.0905 87.9484 34.3767 88.1614 36.2941Z" fill="#DEE67C"/>
<path d="M45.4336 24.7581C42.6009 21.523 42.6561 17.917 42.593 16.8833C42.3721 13.2062 44.3921 12.9537 48.6214 11.2494C54.0423 9.06367 65.5705 8.07734 65.9098 13.1352C66.3754 20.0948 63.4243 24.9712 56.9382 27.5041C52.1091 29.382 47.9981 27.6777 45.4336 24.7581Z" fill="#CCB795"/>
<path d="M43.3269 20.1972C40.9912 15.6996 43.2085 10.4207 48.6294 8.23504C54.0502 6.04934 63.6137 6.93309 65.4916 11.6438C67.3696 16.3545 61.1755 23.748 55.5179 25.1841C49.4816 26.707 45.4337 24.253 43.3269 20.1972Z" fill="url(#paint21_radial_25_22)"/>
<path d="M46.6646 18.3428C45.5126 15.4549 46.5936 12.346 49.9155 11.0046C53.2375 9.66316 56.9698 10.5153 58.1218 13.4033C59.2738 16.2913 57.4669 20.0551 54.137 21.3965C50.8151 22.7379 47.8088 21.2308 46.6646 18.3428Z" fill="url(#paint22_radial_25_22)"/>
<path opacity="0.2" d="M53.6794 48.5957C59.7194 48.5957 64.6158 45.8684 64.6158 42.5042C64.6158 39.1399 59.7194 36.4126 53.6794 36.4126C47.6394 36.4126 42.743 39.1399 42.743 42.5042C42.743 45.8684 47.6394 48.5957 53.6794 48.5957Z" fill="#212121"/>
<path d="M45.4336 43.0013C42.6009 39.7661 42.6561 36.1601 42.593 35.1264C42.3721 31.4494 44.3921 31.1969 48.6214 29.4925C54.0423 27.3068 65.5705 26.3205 65.9098 31.3784C66.3754 38.3379 63.4243 43.2143 56.9382 45.7472C52.1091 47.6252 47.9981 45.9208 45.4336 43.0013Z" fill="#CCB795"/>
<path d="M43.3269 38.4404C40.9912 33.9427 43.2085 28.6639 48.6294 26.4782C54.0502 24.2925 63.6137 25.1762 65.4916 29.887C67.3696 34.5977 61.1755 41.9912 55.5179 43.4273C49.4816 44.9502 45.4337 42.5041 43.3269 38.4404Z" fill="url(#paint23_radial_25_22)"/>
<path d="M46.6646 36.586C45.5126 33.698 46.5936 30.5891 49.9155 29.2477C53.2375 27.9063 56.9698 28.7585 58.1218 31.6465C59.2738 34.5344 57.4669 38.2983 54.137 39.6397C50.8151 40.9811 47.8088 39.474 46.6646 36.586Z" fill="url(#paint24_radial_25_22)"/>
<path d="M123.264 28.6484H126.645V45H123.264V34.1401L116.717 45H113.348V28.6484H116.717V39.5308L123.264 28.6484ZM142.873 45H139.503V37.9922H132.934V45H129.564V28.6484H132.934V35.2744H139.503V28.6484H142.873V45ZM161.234 49.0205H158.124V45H148.263V49.0093H145.074L144.894 42.2935H146.129C146.796 41.7394 147.309 40.9271 147.668 39.8564C148.035 38.7783 148.282 37.4456 148.409 35.8584L148.881 28.6484H159.595V42.2935H161.504L161.234 49.0205ZM149.993 42.2935H156.226V31.3774H152.082L151.801 35.6787C151.576 38.5612 150.973 40.7661 149.993 42.2935ZM173.116 37.9136H166.647V42.2935H174.239V45H163.278V28.6484H174.217V31.3774H166.647V35.2744H173.116V37.9136ZM181.55 38.3179H179.607V45H176.238V28.6484H179.607V35.1958H181.146L185.144 28.6484H189.254L184.212 36.3862L189.782 45H185.762L181.55 38.3179ZM203.562 39.5532C203.435 41.3127 202.783 42.6978 201.608 43.7085C200.44 44.7192 198.898 45.2246 196.981 45.2246C194.885 45.2246 193.234 44.5208 192.028 43.1133C190.83 41.6982 190.231 39.7591 190.231 37.2959V36.2964C190.231 34.7241 190.508 33.339 191.062 32.1411C191.617 30.9432 192.406 30.026 193.432 29.3896C194.465 28.7458 195.663 28.4238 197.026 28.4238C198.913 28.4238 200.432 28.9292 201.585 29.9399C202.738 30.9507 203.405 32.3695 203.584 34.1963H200.215C200.133 33.1406 199.837 32.377 199.328 31.9053C198.826 31.4261 198.059 31.1865 197.026 31.1865C195.903 31.1865 195.061 31.5908 194.499 32.3994C193.945 33.2005 193.66 34.4471 193.646 36.1392V37.3745C193.646 39.1414 193.911 40.4329 194.443 41.249C194.982 42.0651 195.828 42.4731 196.981 42.4731C198.022 42.4731 198.797 42.2373 199.306 41.7656C199.822 41.2865 200.118 40.549 200.193 39.5532H203.562ZM123.298 65.9136H116.829V70.2935H124.421V73H113.46V56.6484H124.398V59.3774H116.829V63.2744H123.298V65.9136ZM141.559 77.0205H138.448V73H128.587V77.0093H125.398L125.218 70.2935H126.454C127.12 69.7394 127.633 68.9271 127.992 67.8564C128.359 66.7783 128.606 65.4456 128.733 63.8584L129.205 56.6484H139.919V70.2935H141.828L141.559 77.0205ZM130.317 70.2935H136.55V59.3774H132.406L132.125 63.6787C131.9 66.5612 131.298 68.7661 130.317 70.2935ZM153.014 69.6309H147.106L145.983 73H142.401L148.488 56.6484H151.61L157.73 73H154.148L153.014 69.6309ZM148.016 66.9019H152.104L150.049 60.7812L148.016 66.9019Z" fill="black"/>
<defs>
<linearGradient id="paint0_linear_25_22" x1="9.07399" y1="3.94455" x2="91.3989" y2="86.2694" gradientUnits="userSpaceOnUse">
<stop offset="0.2239" stop-color="#434343"/>
<stop offset="0.5619" stop-color="#323535"/>
<stop offset="0.8997" stop-color="#404141"/>
</linearGradient>
<radialGradient id="paint1_radial_25_22" cx="0" cy="0" r="1" gradientUnits="userSpaceOnUse" gradientTransform="translate(33.0084 49.9872) scale(33.4457)">
<stop offset="0.4088" stop-color="white"/>
<stop offset="0.724" stop-color="#ECEFF0"/>
<stop offset="0.9654" stop-color="#D0D8DC"/>
</radialGradient>
<radialGradient id="paint2_radial_25_22" cx="0" cy="0" r="1" gradientUnits="userSpaceOnUse" gradientTransform="translate(32.1674 55.076) scale(30.9342)">
<stop offset="0.2277" stop-color="white"/>
<stop offset="0.6304" stop-color="#ECEFF0"/>
<stop offset="0.9654" stop-color="#D0D8DC"/>
</radialGradient>
<radialGradient id="paint3_radial_25_22" cx="0" cy="0" r="1" gradientUnits="userSpaceOnUse" gradientTransform="translate(33.0084 49.9872) scale(33.4457)">
<stop offset="0.4088" stop-color="white"/>
<stop offset="0.724" stop-color="#ECEFF0"/>
<stop offset="0.9654" stop-color="#D0D8DC"/>
</radialGradient>
<radialGradient id="paint4_radial_25_22" cx="0" cy="0" r="1" gradientUnits="userSpaceOnUse" gradientTransform="translate(32.2862 55.6906) scale(3.5556 4.06795)">
<stop offset="0.1384" stop-color="#F47C20"/>
<stop offset="0.8823" stop-color="#E45325"/>
</radialGradient>
<radialGradient id="paint5_radial_25_22" cx="0" cy="0" r="1" gradientUnits="userSpaceOnUse" gradientTransform="translate(23.288 12.0101) scale(12.7325 10.3558)">
<stop offset="0.0529" stop-color="#FFCB28"/>
<stop offset="1" stop-color="#F9A01B"/>
</radialGradient>
<linearGradient id="paint6_linear_25_22" x1="23.3001" y1="28.1922" x2="23.3001" y2="14.7504" gradientUnits="userSpaceOnUse">
<stop offset="0.0303" stop-color="#F37021"/>
<stop offset="1" stop-color="#F9A01B"/>
</linearGradient>
<linearGradient id="paint7_linear_25_22" x1="23.566" y1="13.0867" x2="23.566" y2="27.229" gradientUnits="userSpaceOnUse">
<stop stop-color="#BFCA33"/>
<stop offset="0.8669" stop-color="#679F42"/>
</linearGradient>
<radialGradient id="paint8_radial_25_22" cx="0" cy="0" r="1" gradientUnits="userSpaceOnUse" gradientTransform="translate(23.288 21.4959) scale(12.7325 10.3558)">
<stop offset="0.0574" stop-color="#FFCB28"/>
<stop offset="1" stop-color="#F9A01B"/>
</radialGradient>
<linearGradient id="paint9_linear_25_22" x1="23.3001" y1="37.678" x2="23.3001" y2="24.2363" gradientUnits="userSpaceOnUse">
<stop offset="0.0303" stop-color="#F37021"/>
<stop offset="1" stop-color="#F9A01B"/>
</linearGradient>
<linearGradient id="paint10_linear_25_22" x1="23.2022" y1="22.8358" x2="23.2022" y2="36.9781" gradientUnits="userSpaceOnUse">
<stop stop-color="#BFCA33"/>
<stop offset="0.8669" stop-color="#679F42"/>
</linearGradient>
<linearGradient id="paint11_linear_25_22" x1="23.1977" y1="35.5323" x2="23.1977" y2="26.1486" gradientUnits="userSpaceOnUse">
<stop stop-color="#346A34" stop-opacity="0.6"/>
<stop offset="0.9267" stop-color="#679F42" stop-opacity="0"/>
</linearGradient>
<radialGradient id="paint12_radial_25_22" cx="0" cy="0" r="1" gradientUnits="userSpaceOnUse" gradientTransform="translate(23.288 31.8534) scale(12.7325 10.3558)">
<stop offset="0.0603" stop-color="#FFCB28"/>
<stop offset="1" stop-color="#F9A01B"/>
</radialGradient>
<linearGradient id="paint13_linear_25_22" x1="23.3001" y1="44.2553" x2="23.3001" y2="34.5937" gradientUnits="userSpaceOnUse">
<stop offset="0.0303" stop-color="#F37021"/>
<stop offset="1" stop-color="#F9A01B"/>
</linearGradient>
<linearGradient id="paint14_linear_25_22" x1="23.2" y1="32.9418" x2="23.2" y2="47.0841" gradientUnits="userSpaceOnUse">
<stop stop-color="#BFCA33"/>
<stop offset="0.8669" stop-color="#679F42"/>
</linearGradient>
<linearGradient id="paint15_linear_25_22" x1="22.9712" y1="43.5122" x2="22.9712" y2="36.0911" gradientUnits="userSpaceOnUse">
<stop stop-color="#346A34" stop-opacity="0.6"/>
<stop offset="0.9267" stop-color="#679F42" stop-opacity="0"/>
</linearGradient>
<linearGradient id="paint16_linear_25_22" x1="77.513" y1="75.7594" x2="77.513" y2="50.3428" gradientUnits="userSpaceOnUse">
<stop stop-color="#8D401E"/>
<stop offset="0.6486" stop-color="#BB5B27"/>
</linearGradient>
<radialGradient id="paint17_radial_25_22" cx="0" cy="0" r="1" gradientUnits="userSpaceOnUse" gradientTransform="translate(85.853 56.9129) scale(1.255)">
<stop offset="0.2043" stop-color="#8BC249"/>
<stop offset="1" stop-color="#679F42"/>
</radialGradient>
<radialGradient id="paint18_radial_25_22" cx="0" cy="0" r="1" gradientUnits="userSpaceOnUse" gradientTransform="translate(69.4795 64.948) scale(1.255)">
<stop offset="0.2043" stop-color="#8BC249"/>
<stop offset="1" stop-color="#679F42"/>
</radialGradient>
<radialGradient id="paint19_radial_25_22" cx="0" cy="0" r="1" gradientUnits="userSpaceOnUse" gradientTransform="translate(83.3872 66.7918) scale(1.25501)">
<stop offset="0.2043" stop-color="#8BC249"/>
<stop offset="1" stop-color="#679F42"/>
</radialGradient>
<radialGradient id="paint20_radial_25_22" cx="0" cy="0" r="1" gradientUnits="userSpaceOnUse" gradientTransform="translate(78.758 75.3137) scale(1.25501)">
<stop offset="0.2043" stop-color="#8BC249"/>
<stop offset="1" stop-color="#679F42"/>
</radialGradient>
<radialGradient id="paint21_radial_25_22" cx="0" cy="0" r="1" gradientUnits="userSpaceOnUse" gradientTransform="translate(49.1066 11.7505) scale(20.8058 20.9368)">
<stop offset="0.4485" stop-color="#FFF3E1"/>
<stop offset="1" stop-color="#FFE0B2"/>
</radialGradient>
<radialGradient id="paint22_radial_25_22" cx="0" cy="0" r="1" gradientUnits="userSpaceOnUse" gradientTransform="translate(52.4498 16.6261) scale(5.92523 5.96256)">
<stop stop-color="#F36E21"/>
<stop offset="1" stop-color="#FAAA43"/>
</radialGradient>
<radialGradient id="paint23_radial_25_22" cx="0" cy="0" r="1" gradientUnits="userSpaceOnUse" gradientTransform="translate(49.1066 29.9944) scale(20.8058 20.9368)">
<stop offset="0.4485" stop-color="#FFF3E1"/>
<stop offset="1" stop-color="#FFE0B2"/>
</radialGradient>
<radialGradient id="paint24_radial_25_22" cx="0" cy="0" r="1" gradientUnits="userSpaceOnUse" gradientTransform="translate(52.4498 34.8701) scale(5.92523 5.96255)">
<stop stop-color="#F36E21"/>
<stop offset="1" stop-color="#FAAA43"/>
</radialGradient>
</defs>
</svg>
