<svg width="128" height="58" viewBox="0 0 128 58" fill="none" xmlns="http://www.w3.org/2000/svg">
<path d="M50.7636 55.9791H7.46295C5.74108 55.9791 4.27295 54.7375 3.99202 53.0383L2.72327 45.8608H55.5033L54.2345 53.0383C53.9491 54.733 52.4809 55.9791 50.7636 55.9791Z" fill="#161D21"/>
<path d="M51.8783 49.1278H6.34827C4.34545 49.1278 2.72327 47.5056 2.72327 45.5028V7.01437C2.72327 5.01156 4.34545 3.38937 6.34827 3.38937H51.8783C53.8811 3.38937 55.5033 5.01156 55.5033 7.01437V45.5073C55.5033 47.5056 53.8811 49.1278 51.8783 49.1278Z" fill="url(#paint0_linear_3_388)"/>
<path d="M18.8998 25.2481H8.91748C7.41764 25.2481 6.19873 24.0292 6.19873 22.5294V8.50516C6.19873 7.00531 7.41764 5.78641 8.91748 5.78641H18.8998C20.3997 5.78641 21.6186 7.00531 21.6186 8.50516V22.5294C21.6186 24.0292 20.3997 25.2481 18.8998 25.2481Z" fill="#E53A35"/>
<g opacity="0.2">
<path opacity="0.2" d="M51.7333 4.92999C53.0337 4.92999 54.0895 5.98577 54.0895 7.28624V45.4892C54.0895 45.5753 54.0805 45.675 54.0669 45.8064C54.0533 45.8925 54.0533 45.9831 54.0578 46.0692L52.8434 52.9386C52.6758 53.9581 51.8012 54.6967 50.7681 54.6967H7.46295C6.42983 54.6967 5.5553 53.9581 5.38311 52.925L4.16874 46.0692C4.17327 45.9831 4.16874 45.8925 4.15967 45.8064C4.14155 45.6795 4.13702 45.5798 4.13702 45.4892V7.28624C4.13702 5.98577 5.1928 4.92999 6.49327 4.92999H51.7333ZM51.7333 3.51624H6.49327C4.41342 3.51624 2.72327 5.20186 2.72327 7.28624V45.4892C2.72327 45.6614 2.73686 45.8245 2.75952 45.9922H2.72327L3.99202 53.1697C4.27295 54.8644 5.74108 56.1105 7.46295 56.1105H50.7636C52.4855 56.1105 53.9536 54.8689 54.2345 53.1697L55.5033 45.9922H55.467C55.4897 45.829 55.5033 45.6614 55.5033 45.4892V7.28624C55.5033 5.20186 53.8131 3.51624 51.7333 3.51624Z" fill="#EEEEEE"/>
</g>
<path d="M6.07184 43.1919V32.2897C6.07184 30.7899 7.29074 29.571 8.79059 29.571H31.5239C33.0237 29.571 34.2426 30.7899 34.2426 32.2897V43.1874C34.2426 44.6872 33.0237 45.9061 31.5239 45.9061H8.79059C7.28621 45.9106 6.07184 44.6917 6.07184 43.1919Z" fill="#E53A35"/>
<path d="M37.8495 42.9517V32.5298C37.8495 31.03 39.0684 29.8111 40.5682 29.8111H49.309C50.8089 29.8111 52.0278 31.03 52.0278 32.5298V42.9517C52.0278 44.4516 50.8089 45.6705 49.309 45.6705H40.5682C39.0684 45.6705 37.8495 44.4561 37.8495 42.9517Z" fill="#E53A35"/>
<path d="M49.744 25.4792H27.4367C25.9369 25.4792 24.718 24.2603 24.718 22.7605V8.50516C24.718 7.00531 25.9369 5.78641 27.4367 5.78641H49.744C51.2439 5.78641 52.4628 7.00531 52.4628 8.50516V22.765C52.4628 24.2648 51.2439 25.4792 49.744 25.4792Z" fill="#E53A35"/>
<path d="M44.1253 31.1569H43.6948V31.601H44.1253V31.1569Z" fill="#A16541"/>
<path d="M35.7832 47.8409H4.04181L4.45868 39.798C4.84837 34.732 9.17118 30.6131 14.2145 29.9833C15.814 29.7839 17.699 29.6616 19.9148 29.6616C22.1306 29.6616 24.0156 29.7839 25.6151 29.9833C30.6538 30.6131 34.9812 34.732 35.3709 39.798L35.7832 47.8409Z" fill="url(#paint1_radial_3_388)"/>
<path d="M34.7954 48.1944C35.8715 48.1944 36.7439 47.322 36.7439 46.2459C36.7439 45.1698 35.8715 44.2975 34.7954 44.2975C33.7193 44.2975 32.847 45.1698 32.847 46.2459C32.847 47.322 33.7193 48.1944 34.7954 48.1944Z" fill="url(#paint2_radial_3_388)"/>
<path d="M35.3709 41.2797C35.8829 40.9263 36.2182 40.3417 36.2182 39.6711C36.2182 39.082 35.9554 38.5564 35.5385 38.1984C35.2395 37.9447 35.1307 37.5323 35.1987 37.1472C35.2168 37.0384 35.2259 36.9297 35.2259 36.8164C35.2259 35.738 34.3514 34.868 33.2775 34.868C33.2684 34.868 33.2639 34.868 33.2548 34.8725C33.2729 34.7592 33.291 34.6459 33.291 34.5281C33.291 33.4497 32.4165 32.5797 31.3426 32.5797C31.3426 31.5013 30.4681 30.6313 29.3942 30.6313C29.3126 30.6313 29.2356 30.6358 29.1585 30.6448C28.7734 30.6947 28.4064 30.4998 28.1617 30.2008C27.8082 29.7658 27.269 29.4848 26.6618 29.4848C26.3854 29.4848 26.1271 29.5438 25.8915 29.648C25.6015 29.7794 25.2481 29.725 25.0125 29.512C24.6681 29.2039 24.2195 29.0136 23.7165 29.0136C23.3812 29.0136 23.0685 29.0997 22.7967 29.2492C22.5112 29.4078 22.1396 29.3716 21.9085 29.1405C21.5596 28.7916 21.0793 28.5741 20.5446 28.5741C20.1504 28.5741 19.7879 28.6919 19.4798 28.8958C19.1853 29.0906 18.8182 29.0906 18.5237 28.8958C18.2201 28.6919 17.8531 28.5741 17.4589 28.5741C16.8879 28.5741 16.3759 28.8188 16.0225 29.2084C15.7778 29.4803 15.379 29.5619 15.0301 29.4531C14.8534 29.3988 14.6631 29.367 14.4637 29.367C14.0151 29.367 13.6028 29.5211 13.2765 29.7748C12.9231 30.0513 12.4835 30.2008 12.044 30.1056C11.9171 30.0784 11.7812 30.0648 11.6453 30.0648C10.6937 30.0648 9.90527 30.7445 9.73308 31.6463C9.65152 31.6372 9.56996 31.6236 9.48839 31.6236C8.47339 31.6236 7.65324 32.3984 7.55808 33.3863C7.55355 33.3863 7.54449 33.3863 7.53996 33.3863C6.46152 33.3863 5.59152 34.2608 5.59152 35.3347C5.59152 35.3528 5.59152 35.3664 5.59152 35.3845C5.60058 35.738 5.42839 36.0597 5.13386 36.2545C4.60824 36.6034 4.25933 37.197 4.25933 37.8722C4.25933 38.2573 4.37714 38.6153 4.56746 38.9189C4.24121 39.2678 4.0373 39.7345 4.0373 40.2511C4.0373 40.822 4.28652 41.3341 4.68074 41.692C4.28652 42.05 4.03277 42.562 4.03277 43.1375C4.03277 43.7764 4.34543 44.3383 4.82121 44.6963C4.25933 45.1177 3.92402 45.8291 4.06449 46.613C4.20043 47.3742 4.80308 47.9995 5.56433 48.1581C6.82402 48.4209 7.92964 47.4648 7.92964 46.2505C7.92964 45.6116 7.61699 45.0497 7.14121 44.6917C7.61699 44.3383 7.92964 43.7719 7.92964 43.133C7.92964 42.562 7.68042 42.05 7.28621 41.692C7.68042 41.3341 7.93417 40.822 7.93417 40.2466C7.93417 39.8614 7.81636 39.5034 7.62605 39.1998C7.9523 38.8509 8.15621 38.3842 8.15621 37.8677C8.15621 37.6366 8.11089 37.4145 8.03386 37.2106C8.80871 37.0067 9.38871 36.3406 9.47027 35.5205C9.4748 35.5205 9.48386 35.5205 9.48839 35.5205C10.44 35.5205 11.2284 34.8408 11.4006 33.9391C11.4821 33.9481 11.5637 33.9617 11.6453 33.9617C12.3929 33.9617 13.0364 33.5358 13.3626 32.9195C13.6753 33.137 14.0559 33.2639 14.4637 33.2639C15.2793 33.2639 15.9726 32.7655 16.2671 32.0541C16.5979 32.3123 17.0103 32.4709 17.4589 32.4709C18.0887 32.4709 18.646 32.1673 18.9995 31.7006C19.3575 32.1628 19.9103 32.4709 20.5401 32.4709C21.111 32.4709 21.6185 32.2217 21.9765 31.832C22.2982 32.4709 22.9507 32.9105 23.712 32.9105C24.2014 32.9105 24.6454 32.7247 24.9853 32.4256C25.3251 32.9966 25.9414 33.3863 26.6573 33.3863C26.9745 33.3863 27.2735 33.3047 27.5364 33.1688C27.7856 33.9572 28.5151 34.5327 29.3851 34.5327C29.3851 35.6111 30.2596 36.4811 31.3335 36.4811C31.3426 36.4811 31.3471 36.4811 31.3562 36.4766C31.3381 36.5898 31.32 36.7031 31.32 36.8209C31.32 37.6638 31.8592 38.3752 32.6068 38.647C32.421 38.9461 32.3078 39.295 32.3078 39.6711C32.3078 40.5456 32.8878 41.2752 33.6762 41.5244C33.0781 41.9322 32.7201 42.6663 32.856 43.4728C32.9875 44.2431 33.5946 44.8775 34.3559 45.0361C35.6156 45.2989 36.7257 44.3428 36.7257 43.133C36.7439 42.2584 36.1639 41.5289 35.3709 41.2797Z" fill="url(#paint3_radial_3_388)"/>
<path d="M19.6384 35.8241C20.9347 35.8241 21.9856 34.9639 21.9856 33.9028C21.9856 32.8417 20.9347 31.9816 19.6384 31.9816C18.3421 31.9816 17.2912 32.8417 17.2912 33.9028C17.2912 34.9639 18.3421 35.8241 19.6384 35.8241Z" fill="#B0BEC5"/>
<path d="M19.6384 35.0175C20.9347 35.0175 21.9856 34.1573 21.9856 33.0963C21.9856 32.0352 20.9347 31.175 19.6384 31.175C18.3421 31.175 17.2912 32.0352 17.2912 33.0963C17.2912 34.1573 18.3421 35.0175 19.6384 35.0175Z" fill="url(#paint4_radial_3_388)"/>
<path opacity="0.2" d="M11.3204 41.7839C11.3788 41.4182 10.8211 41.0251 10.0747 40.906C9.32842 40.7869 8.67609 40.9868 8.61771 41.3526C8.55934 41.7183 9.11703 42.1114 9.86335 42.2305C10.6097 42.3496 11.262 42.1497 11.3204 41.7839Z" fill="#B0BEC5"/>
<path opacity="0.2" d="M14.272 44.1591C14.3303 43.7934 13.9049 43.4214 13.3216 43.3284C12.7384 43.2353 12.2183 43.4563 12.16 43.8221C12.1016 44.1878 12.5271 44.5598 13.1103 44.6528C13.6935 44.7459 14.2136 44.5249 14.272 44.1591Z" fill="#B0BEC5"/>
<path opacity="0.2" d="M7.03071 40.5068C7.66525 40.0963 8.01655 39.5114 7.81536 39.2004C7.61417 38.8895 6.93668 38.9702 6.30214 39.3807C5.6676 39.7913 5.31629 40.3761 5.51748 40.6871C5.71867 40.9981 6.39616 40.9174 7.03071 40.5068Z" fill="#B0BEC5"/>
<path opacity="0.2" d="M7.63489 44.4915C7.79689 44.1584 7.46847 43.6648 6.90133 43.3889C6.3342 43.1131 5.74311 43.1595 5.58111 43.4926C5.41911 43.8257 5.74754 44.3193 6.31467 44.5951C6.88181 44.871 7.47289 44.8246 7.63489 44.4915Z" fill="#90A4AE"/>
<path opacity="0.2" d="M10.3049 46.3515C10.8506 46.0353 11.1423 45.5191 10.9566 45.1987C10.7708 44.8782 10.1779 44.8748 9.6323 45.1911C9.08667 45.5073 8.79492 46.0235 8.98067 46.344C9.16641 46.6644 9.75931 46.6678 10.3049 46.3515Z" fill="#90A4AE"/>
<path opacity="0.2" d="M32.885 42.9245C33.6314 42.8054 34.189 42.4123 34.1307 42.0466C34.0723 41.6808 33.42 41.4809 32.6737 41.6C31.9273 41.7191 31.3696 42.1122 31.428 42.4779C31.4864 42.8437 32.1387 43.0436 32.885 42.9245Z" fill="#B0BEC5"/>
<path opacity="0.2" d="M27.4297 44.6688C28.176 44.5496 28.7337 44.1566 28.6754 43.7908C28.617 43.4251 27.9647 43.2252 27.2183 43.3443C26.472 43.4634 25.9143 43.8564 25.9727 44.2222C26.0311 44.5879 26.6834 44.7879 27.4297 44.6688Z" fill="#B0BEC5"/>
<path opacity="0.2" d="M34.318 39.283C34.5192 38.972 34.1679 38.3871 33.5334 37.9766C32.8989 37.5661 32.2214 37.4854 32.0202 37.7963C31.819 38.1073 32.1703 38.6922 32.8048 39.1027C33.4394 39.5132 34.1169 39.594 34.318 39.283Z" fill="#B0BEC5"/>
<path opacity="0.2" d="M32.4164 46.3475C32.6021 46.0271 32.3104 45.5109 31.7648 45.1947C31.2191 44.8784 30.6262 44.8818 30.4405 45.2022C30.2548 45.5227 30.5465 46.0389 31.0921 46.3551C31.6378 46.6714 32.2307 46.668 32.4164 46.3475Z" fill="#90A4AE"/>
<path opacity="0.2" d="M18.6829 46.0085C18.7597 45.6462 18.3219 45.2464 17.705 45.1156C17.0882 44.9847 16.5258 45.1723 16.4489 45.5346C16.3721 45.8969 16.8098 46.2967 17.4267 46.4276C18.0436 46.5584 18.606 46.3708 18.6829 46.0085Z" fill="#B0BEC5"/>
<path opacity="0.2" d="M20.7909 43.6732C21.6329 43.6274 22.2993 43.2906 22.2792 42.9208C22.2592 42.551 21.5602 42.2882 20.7182 42.3339C19.8761 42.3796 19.2097 42.7165 19.2298 43.0863C19.2498 43.4561 19.9488 43.7189 20.7909 43.6732Z" fill="#B0BEC5"/>
<path opacity="0.2" d="M17.627 42.6512C18.205 42.399 18.5534 41.9193 18.4052 41.5798C18.2571 41.2404 17.6685 41.1697 17.0905 41.422C16.5125 41.6742 16.164 42.1539 16.3122 42.4933C16.4603 42.8328 17.049 42.9035 17.627 42.6512Z" fill="#B0BEC5"/>
<path opacity="0.2" d="M15.0457 40.6662C15.1827 40.3221 14.8188 39.854 14.2328 39.6208C13.6469 39.3875 13.0608 39.4774 12.9238 39.8215C12.7868 40.1656 13.1508 40.6337 13.7367 40.8669C14.3226 41.1002 14.9087 41.0103 15.0457 40.6662Z" fill="#B0BEC5"/>
<path opacity="0.2" d="M12.1944 37.9277C12.3053 37.3069 12.0997 36.7508 11.7351 36.6856C11.3705 36.6205 10.985 37.0709 10.8741 37.6917C10.7631 38.3125 10.9688 38.8686 11.3334 38.9338C11.698 38.9989 12.0835 38.5485 12.1944 37.9277Z" fill="#D0D8DC"/>
<path opacity="0.2" d="M19.0882 38.8816C19.144 38.5155 18.6839 38.1416 18.0604 38.0465C17.437 37.9514 16.8863 38.1711 16.8304 38.5372C16.7746 38.9034 17.2347 39.2773 17.8582 39.3724C18.4816 39.4675 19.0323 39.2478 19.0882 38.8816Z" fill="#D0D8DC"/>
<path opacity="0.2" d="M29.7412 37.531C30.2797 37.2028 30.5599 36.6804 30.3672 36.3641C30.1745 36.0478 29.5817 36.0575 29.0432 36.3857C28.5047 36.7139 28.2244 37.2363 28.4171 37.5526C28.6099 37.8688 29.2026 37.8592 29.7412 37.531Z" fill="#B0BEC5"/>
<path opacity="0.2" d="M9.1022 36.9772C9.2392 36.6331 8.87527 36.165 8.28934 35.9317C7.70341 35.6985 7.11737 35.7883 6.98036 36.1324C6.84336 36.4766 7.20729 36.9446 7.79321 37.1779C8.37914 37.4112 8.96519 37.3213 9.1022 36.9772Z" fill="#B0BEC5"/>
<path opacity="0.2" d="M23.948 46.3653C24.5084 46.0761 24.8251 45.5749 24.6553 45.2457C24.4855 44.9166 23.8935 44.8841 23.333 45.1733C22.7726 45.4624 22.4559 45.9637 22.6257 46.2928C22.7955 46.622 23.3875 46.6544 23.948 46.3653Z" fill="#90A4AE"/>
<path opacity="0.2" d="M24.5629 38.9009C25.2823 38.6694 25.7735 38.1959 25.6601 37.8433C25.5466 37.4908 24.8715 37.3926 24.152 37.6241C23.4326 37.8556 22.9414 38.3291 23.0548 38.6816C23.1683 39.0342 23.8435 39.1323 24.5629 38.9009Z" fill="#D0D8DC"/>
<path opacity="0.2" d="M29.5618 33.8715C29.7375 33.5454 29.3406 32.9905 28.6753 32.6319C28.01 32.2734 27.3283 32.2471 27.1526 32.5731C26.9769 32.8991 27.3737 33.4541 28.039 33.8126C28.7043 34.1712 29.3861 34.1975 29.5618 33.8715Z" fill="#D0D8DC"/>
<path opacity="0.2" d="M10.6456 34.4208C11.0817 34.1187 11.2642 33.6269 11.0533 33.3225C10.8424 33.018 10.3178 33.0162 9.88174 33.3183C9.44563 33.6205 9.26309 34.1122 9.47402 34.4166C9.68495 34.7211 10.2095 34.723 10.6456 34.4208Z" fill="#D0D8DC"/>
<path opacity="0.2" d="M14.9961 37.5081C15.4322 37.206 15.6147 36.7142 15.4038 36.4098C15.1929 36.1053 14.6684 36.1034 14.2323 36.4056C13.7962 36.7077 13.6136 37.1995 13.8245 37.5039C14.0355 37.8084 14.56 37.8102 14.9961 37.5081Z" fill="#D0D8DC"/>
<path opacity="0.2" d="M26.0605 35.5678C26.4966 35.2656 26.6791 34.7739 26.4682 34.4694C26.2573 34.165 25.7328 34.1631 25.2967 34.4653C24.8606 34.7674 24.678 35.2591 24.8889 35.5636C25.0999 35.868 25.6244 35.8699 26.0605 35.5678Z" fill="#D0D8DC"/>
<path opacity="0.2" d="M25.2503 31.5279C25.387 31.1837 25.0982 30.7459 24.6052 30.55C24.1122 30.3541 23.6016 30.4744 23.4649 30.8186C23.3281 31.1628 23.617 31.6006 24.11 31.7964C24.603 31.9923 25.1136 31.8721 25.2503 31.5279Z" fill="#D0D8DC"/>
<path opacity="0.2" d="M13.8107 33.9723C14.314 33.8044 14.627 33.3835 14.5097 33.0321C14.3925 32.6808 13.8895 32.5321 13.3862 32.7C12.883 32.8679 12.57 33.2889 12.6872 33.6402C12.8045 33.9916 13.3075 34.1402 13.8107 33.9723Z" fill="#D0D8DC"/>
<path opacity="0.2" d="M16.5406 30.7866C16.5787 30.4182 16.1818 30.0753 15.6541 30.0206C15.1264 29.966 14.6676 30.2203 14.6295 30.5888C14.5914 30.9572 14.9882 31.3001 15.516 31.3548C16.0437 31.4094 16.5024 31.1551 16.5406 30.7866Z" fill="#D0D8DC"/>
<path opacity="0.2" d="M29.3196 41.008C30.0383 40.7743 30.5282 40.2993 30.4136 39.9471C30.2991 39.5949 29.6236 39.4988 28.9049 39.7325C28.1862 39.9661 27.6964 40.4411 27.8109 40.7933C27.9254 41.1456 28.6009 41.2417 29.3196 41.008Z" fill="#B0BEC5"/>
<path opacity="0.2" d="M25.9292 42.2707C26.101 41.9426 25.6976 41.3923 25.0282 41.0417C24.3587 40.691 23.6767 40.6727 23.5048 41.0007C23.333 41.3288 23.7364 41.8791 24.4058 42.2297C25.0753 42.5804 25.7573 42.5987 25.9292 42.2707Z" fill="#B0BEC5"/>
<path opacity="0.1" d="M16.7958 34.6235C17.5145 34.3898 18.0044 33.9149 17.8898 33.5626C17.7753 33.2104 17.0998 33.1143 16.3811 33.348C15.6624 33.5817 15.1725 34.0567 15.2871 34.4089C15.4016 34.7611 16.0771 34.8572 16.7958 34.6235Z" fill="#D0D8DC"/>
<path d="M20.6686 10.2723C21.0447 11.2375 21.0447 13.2992 21.0447 13.2992C21.0447 13.2992 17.2929 14.2825 13.8083 14.2825C10.3918 14.2825 6.59912 13.2992 6.59912 13.2992C6.59912 13.2992 6.59912 11.3372 6.94803 10.2723C7.64584 8.15171 9.81178 6.26218 13.8083 6.26218C17.8049 6.26218 19.853 8.18343 20.6686 10.2723Z" fill="url(#paint5_radial_3_388)"/>
<path d="M21.0431 13.0001C21.0431 15.2159 19.2306 16.7112 13.8067 16.7112C8.38281 16.7112 6.57031 15.2159 6.57031 13.0001C6.57031 10.7844 9.81016 8.98999 13.8067 8.98999C17.8033 8.98999 21.0431 10.7844 21.0431 13.0001Z" fill="url(#paint6_linear_3_388)"/>
<path d="M19.1536 12.0758L20.0417 11.7314L19.7109 10.7889L18.9905 11.8311L19.1536 12.0758Z" fill="#568B3E"/>
<path d="M18.3289 11.9172L18.424 11.1106L17.989 10.6983L17.8123 11.9308L18.3289 11.9172Z" fill="#568B3E"/>
<path d="M13.5937 11.301L13.6934 10.4899L13.2584 10.0775L13.2448 10.6983L13.2358 11.3145L13.5937 11.301Z" fill="#568B3E"/>
<path d="M12.1754 11.2103L12.5108 11.3145L12.5833 10.5488L12.0894 10.363L12.1754 11.2103Z" fill="#568B3E"/>
<path d="M9.66969 11.5637L9.8011 10.9158L8.98547 10.6983L9.10329 11.8401L9.66969 11.5637Z" fill="#568B3E"/>
<path d="M18.8183 10.3811C18.3062 10.0186 17.8984 10.5488 18.0026 10.8025C18.0661 10.9611 18.2156 11.0608 18.1703 11.2466C18.125 11.4323 17.9755 11.4595 17.7081 11.4414C17.409 11.4233 17.2459 11.1922 17.2051 10.9883C17.0239 10.0775 16.462 9.87813 16.0406 10.0866C15.6962 10.2588 16.0769 10.585 15.7642 10.7119C15.4017 10.8569 15.1933 10.7708 15.0211 10.5669C14.8897 10.4128 15.0619 10.1545 14.8036 9.83734C14.3776 9.30719 13.3445 9.62891 13.2403 9.99594C13.1361 10.363 13.4805 10.3811 13.494 10.6983C13.5076 11.0155 12.905 11.1877 12.6014 11.0608C11.9761 10.8025 12.6331 10.8297 12.5787 10.4264C12.5017 9.87359 11.7133 10.0458 11.532 10.1545C11.0517 10.44 11.2284 10.6847 11.1106 10.8614C10.8297 11.2692 10.4083 11.0472 10.1908 10.9203C9.97326 10.7934 9.92795 10.2542 9.25733 10.4581C8.79967 10.5986 8.98998 10.9248 9.17576 11.1288C9.26186 11.2239 9.23014 11.3734 9.11233 11.4278C8.6728 11.6227 8.33295 11.3281 8.0928 11.1922C7.80733 11.0336 7.38592 11.0563 7.18655 11.2692C6.95092 11.5275 7.68498 11.6725 7.39498 11.9308C7.15483 12.1438 6.83311 11.8175 6.76967 11.7269C6.39811 11.2284 5.78186 12.3023 6.2803 12.4202C6.7742 12.538 6.67905 12.9775 6.58842 13.127C6.40717 13.4306 6.05826 12.7056 6.17155 13.9381C6.24858 14.8036 6.86936 15.2658 7.32248 15.5694C7.92514 15.9772 19.0539 16.5708 20.5945 15.6373C20.9797 15.4017 22.04 13.9155 21.7636 13.3717C21.3512 12.5742 21.2969 13.5938 21.034 13.2947C20.4631 12.6422 21.3376 12.5742 21.1926 12.1845C21.0386 11.7631 20.9072 12.112 20.7531 11.9534C20.5311 11.7223 20.6172 11.5864 20.7259 11.4278C20.8392 11.2602 20.2456 10.7209 19.8514 10.7209C19.4617 10.7209 19.9239 11.1967 19.6747 11.3236C19.4255 11.4505 19.2623 11.3372 18.995 11.0789C18.7276 10.8342 19.1219 10.5941 18.8183 10.3811Z" fill="url(#paint7_linear_3_388)"/>
<path d="M20.6686 15.7189C21.0447 16.6841 21.0447 18.7458 21.0447 18.7458C21.0447 18.7458 17.2929 19.7291 13.8083 19.7291C10.3918 19.7291 6.59912 18.7458 6.59912 18.7458C6.59912 18.7458 6.59912 16.7837 6.94803 15.7189C7.64584 13.5983 9.81178 11.7087 13.8083 11.7087C17.8049 11.7087 19.853 13.63 20.6686 15.7189Z" fill="url(#paint8_radial_3_388)"/>
<path d="M21.0431 18.4467C21.0431 20.6625 19.2306 22.1578 13.8067 22.1578C8.38281 22.1578 6.57031 20.6625 6.57031 18.4467C6.57031 16.2309 9.81016 14.4366 13.8067 14.4366C17.8033 14.4366 21.0431 16.2309 21.0431 18.4467Z" fill="url(#paint9_linear_3_388)"/>
<path d="M11.6344 12.9714C12.0083 12.9016 12.2817 12.6855 12.245 12.4887C12.2082 12.2919 11.8754 12.189 11.5014 12.2587C11.1275 12.3285 10.8542 12.5446 10.8909 12.7414C10.9276 12.9382 11.2605 13.0412 11.6344 12.9714Z" fill="#FDD836"/>
<path d="M13.6488 12.5954C14.0281 12.5665 14.3232 12.3812 14.308 12.1815C14.2927 11.9819 13.9729 11.8436 13.5936 11.8725C13.2143 11.9015 12.9192 12.0868 12.9344 12.2864C12.9497 12.486 13.2695 12.6244 13.6488 12.5954Z" fill="#FDD836"/>
<path d="M13.0508 13.2977C13.43 13.2687 13.7252 13.0834 13.7099 12.8838C13.6947 12.6842 13.3749 12.5458 12.9956 12.5748C12.6163 12.6037 12.3212 12.789 12.3364 12.9886C12.3517 13.1882 12.6715 13.3266 13.0508 13.2977Z" fill="#F9BF2C"/>
<path d="M15.7564 13.0961C15.7614 12.8959 15.4573 12.7258 15.077 12.7162C14.6967 12.7065 14.3843 12.8609 14.3793 13.0611C14.3742 13.2612 14.6783 13.4313 15.0586 13.441C15.4389 13.4506 15.7513 13.2962 15.7564 13.0961Z" fill="#F9BF2C"/>
<path d="M13.9419 13.7656C14.3218 13.7464 14.6215 13.5688 14.6114 13.3688C14.6014 13.1689 14.2852 13.0223 13.9053 13.0415C13.5254 13.0607 13.2256 13.2383 13.2357 13.4383C13.2458 13.6382 13.562 13.7847 13.9419 13.7656Z" fill="#FDD836"/>
<path d="M16.4932 12.4716C16.5221 12.2735 16.2404 12.0683 15.864 12.0134C15.4876 11.9585 15.1591 12.0746 15.1302 12.2727C15.1013 12.4708 15.3829 12.6759 15.7593 12.7308C16.1357 12.7857 16.4643 12.6697 16.4932 12.4716Z" fill="#FDD836"/>
<path d="M10.6528 13.7332C10.9988 13.5752 11.2118 13.2994 11.1286 13.1173C11.0454 12.9352 10.6975 12.9157 10.3515 13.0738C10.0055 13.2318 9.79247 13.5076 9.87566 13.6897C9.95884 13.8718 10.3068 13.8913 10.6528 13.7332Z" fill="#F9BF2C"/>
<path d="M15.1299 14.2916C15.5102 14.2916 15.8186 14.1293 15.8186 13.9291C15.8186 13.7289 15.5102 13.5666 15.1299 13.5666C14.7495 13.5666 14.4411 13.7289 14.4411 13.9291C14.4411 14.1293 14.7495 14.2916 15.1299 14.2916Z" fill="#F9BF2C"/>
<path d="M17.1856 13.17C17.1977 12.9702 16.8997 12.7895 16.52 12.7664C16.1403 12.7434 15.8227 12.8867 15.8105 13.0865C15.7984 13.2864 16.0964 13.4671 16.4761 13.4901C16.8558 13.5132 17.1734 13.3698 17.1856 13.17Z" fill="#F9BF2C"/>
<path d="M10.3421 14.6353C10.7026 14.5138 10.9429 14.2615 10.879 14.0718C10.815 13.8821 10.471 13.8268 10.1105 13.9483C9.75009 14.0698 9.50972 14.322 9.57367 14.5117C9.63761 14.7015 9.98166 14.7568 10.3421 14.6353Z" fill="#F9A823"/>
<path d="M17.4895 14.0414C17.5218 13.8438 17.2436 13.6339 16.8681 13.5727C16.4927 13.5114 16.1622 13.622 16.13 13.8196C16.0977 14.0172 16.3759 14.227 16.7514 14.2883C17.1268 14.3495 17.4573 14.239 17.4895 14.0414Z" fill="#F9A823"/>
<path d="M19.0591 14.704C19.1373 14.5197 18.9168 14.2498 18.5667 14.1012C18.2165 13.9526 17.8692 13.9816 17.791 14.1659C17.7128 14.3502 17.9333 14.6201 18.2835 14.7687C18.6337 14.9172 18.9809 14.8883 19.0591 14.704Z" fill="#F9A823"/>
<path d="M18.5615 13.5043C18.6214 13.3133 18.3756 13.0662 18.0126 12.9525C17.6496 12.8388 17.3068 12.9016 17.247 13.0926C17.1871 13.2837 17.4329 13.5307 17.7959 13.6444C18.1589 13.7581 18.5017 13.6954 18.5615 13.5043Z" fill="#F9A823"/>
<path d="M9.40546 13.7154C9.73286 13.5217 9.91562 13.225 9.81368 13.0527C9.71174 12.8803 9.36369 12.8977 9.03629 13.0914C8.70889 13.2851 8.52612 13.5818 8.62807 13.7541C8.73001 13.9264 9.07806 13.9091 9.40546 13.7154Z" fill="#F9A823"/>
<path d="M8.95856 14.7811C9.28596 14.5874 9.46872 14.2907 9.36678 14.1184C9.26484 13.9461 8.91679 13.9634 8.58939 14.1571C8.26199 14.3508 8.07922 14.6475 8.18117 14.8198C8.28311 14.9921 8.63116 14.9748 8.95856 14.7811Z" fill="#F9A823"/>
<path d="M20.0009 17.7534L19.9058 16.9423L20.3408 17.0329L20.2275 18.1431L20.0009 17.7534Z" fill="#568B3E"/>
<path d="M8.34656 17.6764L7.45844 17.3275L7.78922 16.3895L8.50969 17.4317L8.34656 17.6764Z" fill="#568B3E"/>
<path d="M9.17127 17.5178L9.07611 16.7067L9.50658 16.2943L9.68783 17.5314L9.17127 17.5178Z" fill="#568B3E"/>
<path d="M13.9019 16.897L13.8068 16.0904L14.2418 15.6781L14.2508 16.2944L14.2599 16.9106L13.9019 16.897Z" fill="#568B3E"/>
<path d="M15.3202 16.8064L14.9894 16.9106L14.9169 16.1448L15.4108 15.959L15.3202 16.8064Z" fill="#568B3E"/>
<path d="M17.8305 17.1598L17.6946 16.5164L18.5102 16.2943L18.3969 17.4362L17.8305 17.1598Z" fill="#568B3E"/>
<path d="M8.67889 15.9772C9.19092 15.6147 9.59874 16.1448 9.49452 16.3986C9.43108 16.5572 9.28155 16.6568 9.32686 16.8426C9.37217 17.0239 9.52171 17.0556 9.78905 17.0375C10.0881 17.0193 10.2512 16.7883 10.292 16.5843C10.4733 15.6736 11.0351 15.4742 11.4565 15.6826C11.8009 15.8548 11.4203 16.1811 11.733 16.3079C12.0955 16.4529 12.3039 16.3668 12.4761 16.1629C12.6075 16.0089 12.4353 15.7506 12.6936 15.4334C13.1195 14.9033 14.1526 15.225 14.2569 15.592C14.3611 15.959 14.0167 15.9772 14.0031 16.2943C13.9895 16.6115 14.5922 16.7837 14.8958 16.6568C15.5211 16.3986 14.864 16.4258 14.9184 16.0225C14.9955 15.4697 15.7839 15.6418 15.9651 15.7506C16.4455 16.0361 16.2687 16.2808 16.3865 16.4575C16.6675 16.8653 17.0889 16.6433 17.3064 16.5164C17.5239 16.3895 17.5692 15.8503 18.2398 16.0542C18.6975 16.1947 18.5072 16.5209 18.3214 16.7248C18.2353 16.82 18.267 16.9695 18.3848 17.0239C18.8244 17.2187 19.1642 16.9242 19.4044 16.7883C19.6898 16.6297 20.1112 16.6523 20.3106 16.8653C20.5462 17.1236 19.8122 17.2686 20.1022 17.5268C20.3423 17.7398 20.6641 17.4136 20.7275 17.3229C21.0991 16.8245 21.6564 17.7534 21.2169 18.0162C20.6595 18.3515 21.4344 18.3923 21.4344 18.5645C21.4389 20.0326 20.7773 20.7576 20.1747 21.1654C19.572 21.5733 8.44327 22.1668 6.90264 21.2334C6.24108 20.8301 5.8242 18.9587 6.25014 18.5872C6.67155 18.2156 6.16405 18.1748 6.30905 17.7806C6.46311 17.3592 6.59452 17.7081 6.74858 17.5495C6.97061 17.3184 6.88452 17.1825 6.77577 17.0239C6.66249 16.8562 7.25608 16.317 7.6503 16.317C8.03999 16.317 7.5778 16.7928 7.82702 16.9197C8.07624 17.0465 8.23936 16.9333 8.50671 16.675C8.76952 16.4303 8.37983 16.1901 8.67889 15.9772Z" fill="url(#paint10_linear_3_388)"/>
<path opacity="0.5" d="M20.1686 21.1745C19.5433 21.5778 8.77706 22.2665 6.89659 21.2425C6.10815 20.812 6.0719 18.9587 6.0719 18.9587L6.41174 18.3017C6.41174 18.3017 6.89206 19.3076 7.27721 19.4481C7.66237 19.5886 6.85127 17.1779 6.85127 17.1779C6.85127 17.1779 8.23331 19.1626 8.78159 19.217C9.32987 19.2714 9.22565 17.0375 9.22565 17.0375C9.22565 17.0375 10.0322 20.0734 10.5035 20.1006C10.9792 20.1278 10.8841 16.7837 11.2783 16.4393C11.668 16.095 12.4202 20.5764 12.896 20.8029C13.3717 21.025 13.2449 16.9151 13.7116 16.4393C14.2463 15.9001 13.8249 19.9556 14.6677 20.1821C15.4924 20.4087 15.3111 16.9287 16.2446 16.7112C16.7475 16.5934 16.0361 20.0689 16.7475 20.1821C17.9619 20.377 18.2021 17.4045 18.8591 17.1961C19.276 17.0646 18.8319 19.942 19.1083 20.155C19.4708 20.4314 21.4283 18.714 21.4283 18.714C21.4283 18.714 21.4736 20.3317 20.1686 21.1745Z" fill="url(#paint11_linear_3_388)"/>
<path d="M20.6686 21.6684C21.0447 22.6336 21.0447 24.6953 21.0447 24.6953C21.0447 24.6953 17.2929 25.6786 13.8083 25.6786C10.3918 25.6786 6.59912 24.6953 6.59912 24.6953C6.59912 24.6953 6.59912 22.7333 6.94803 21.6684C7.64584 19.5478 9.81178 17.6583 13.8083 17.6583C17.8049 17.6583 19.853 19.5795 20.6686 21.6684Z" fill="url(#paint12_radial_3_388)"/>
<path d="M21.0431 24.3917C21.0431 26.6075 19.0177 25.7783 13.5938 25.7783C8.16984 25.7783 6.57031 26.6075 6.57031 24.3917C6.57031 22.1759 9.81016 20.3815 13.8067 20.3815C17.8033 20.3815 21.0431 22.1804 21.0431 24.3917Z" fill="url(#paint13_linear_3_388)"/>
<path d="M19.1536 23.4764L20.0417 23.132L19.7109 22.194L18.9905 23.2317L19.1536 23.4764Z" fill="#568B3E"/>
<path d="M18.3289 23.3223L18.424 22.5113L17.989 22.0989L17.8123 23.3314L18.3289 23.3223Z" fill="#568B3E"/>
<path d="M13.5937 22.7015L13.6934 21.895L13.2584 21.4826L13.2448 22.0989L13.2358 22.7151L13.5937 22.7015Z" fill="#568B3E"/>
<path d="M12.1754 22.6109L12.5108 22.7151L12.5833 21.9494L12.0894 21.7636L12.1754 22.6109Z" fill="#568B3E"/>
<path d="M9.66969 22.9644L9.8011 22.3164L8.98547 22.0989L9.10329 23.2408L9.66969 22.9644Z" fill="#568B3E"/>
<path d="M18.8183 21.7817C18.3063 21.4192 17.8985 21.9494 18.0027 22.2031C18.0661 22.3617 18.2156 22.4614 18.1703 22.6472C18.125 22.8284 17.9755 22.8601 17.7081 22.842C17.4091 22.8239 17.246 22.5928 17.2052 22.3889C17.0239 21.4781 16.462 21.2787 16.0406 21.4872C15.6963 21.6594 16.0769 21.9856 15.7642 22.1125C15.4017 22.2575 15.1933 22.1714 15.0211 21.9675C14.8897 21.8134 15.0619 21.5551 14.8036 21.2379C14.3777 20.7078 13.3445 21.0295 13.2403 21.3965C13.1361 21.7636 13.4805 21.7817 13.4941 22.0989C13.5077 22.4161 12.905 22.5883 12.6014 22.4614C11.9761 22.2031 12.6331 22.2303 12.5788 21.827C12.5017 21.2742 11.7133 21.4464 11.532 21.5551C11.0517 21.8406 11.2285 22.0853 11.1106 22.262C10.8297 22.6698 10.4083 22.4478 10.1908 22.3209C9.9733 22.194 9.92799 21.6548 9.25736 21.8587C8.7997 21.9992 8.99002 22.3254 9.1758 22.5294C9.26189 22.6245 9.23017 22.774 9.11236 22.8284C8.67283 23.0233 8.33299 22.7287 8.09283 22.5928C7.80736 22.4342 7.38595 22.4569 7.18658 22.6698C6.95095 22.9281 7.68502 23.0731 7.39502 23.3314C7.15486 23.5444 6.83314 23.2181 6.7697 23.1275C6.39814 22.629 5.8408 23.5579 6.28033 23.8208C6.83767 24.1561 6.06283 24.1969 6.06283 24.369C6.0583 25.8372 6.71986 26.5622 7.32252 26.97C7.92517 27.3778 19.0539 27.9714 20.5946 27.0379C21.2561 26.6347 21.673 24.7633 21.247 24.3917C20.8256 24.0201 21.3331 23.9794 21.1881 23.5851C21.0341 23.1637 20.9027 23.5126 20.7486 23.354C20.5266 23.1229 20.6127 22.987 20.7214 22.8284C20.8347 22.6608 20.2411 22.1215 19.8469 22.1215C19.4572 22.1215 19.9194 22.5973 19.6702 22.7242C19.421 22.8511 19.2578 22.7378 18.9905 22.4795C18.7277 22.2348 19.1219 21.9947 18.8183 21.7817Z" fill="url(#paint14_linear_3_388)"/>
<path opacity="0.5" d="M21.4736 26.1815L6.5975 26.0954L5.75922 23.3495C5.75922 23.3495 6.11719 23.4265 6.5975 23.6214C7.07781 23.8162 7.07328 24.4778 7.45843 24.6183C7.84359 24.7587 7.45843 22.7197 7.45843 22.7197C7.45843 22.7197 8.70906 25.1847 9.25734 25.239C9.80562 25.2934 9.18937 22.5248 9.18937 22.5248C9.18937 22.5248 10.0322 24.5412 10.508 24.5729C10.9837 24.6047 10.8116 22.2847 11.2058 21.9403C11.5955 21.5959 12.4247 25.0533 12.9005 25.2798C13.3762 25.5019 13.2131 22.5339 13.6798 22.0581C14.2145 21.5189 13.8294 24.4325 14.6722 24.659C15.4969 24.8856 15.2114 22.3345 16.1448 22.117C16.6478 21.9992 16.0452 24.5458 16.752 24.659C17.9664 24.8539 18.3425 23.0958 18.9995 22.8873C19.4164 22.7559 18.8364 24.4189 19.1173 24.6319C19.4798 24.9083 21.2833 23.1683 21.2833 23.1683L21.4736 26.1815Z" fill="url(#paint15_linear_3_388)"/>
<path d="M11.3668 7.51147C11.771 7.48062 12.0856 7.28367 12.0694 7.07157C12.0532 6.85947 11.7124 6.71254 11.3082 6.74339C10.9039 6.77424 10.5894 6.9712 10.6055 7.18329C10.6217 7.39539 10.9626 7.54232 11.3668 7.51147Z" fill="#FDD836"/>
<path d="M12.3617 7.9601C12.741 7.93115 13.0361 7.74586 13.0209 7.54623C13.0057 7.34661 12.6858 7.20825 12.3066 7.2372C11.9273 7.26615 11.6322 7.45144 11.6474 7.65106C11.6626 7.85068 11.9825 7.98904 12.3617 7.9601Z" fill="#F9BF2C"/>
<path d="M14.3455 7.14322C14.3509 6.93056 14.0267 6.74983 13.6215 6.73953C13.2162 6.72923 12.8832 6.89327 12.8778 7.10593C12.8724 7.31858 13.1966 7.49931 13.6019 7.50961C14.0072 7.51991 14.3401 7.35587 14.3455 7.14322Z" fill="#FDD836"/>
<path d="M16.4401 7.61586C16.4452 7.41572 16.141 7.24564 15.7607 7.23598C15.3805 7.22632 15.0681 7.38073 15.063 7.58088C15.0579 7.78102 15.362 7.9511 15.7423 7.96076C16.1226 7.97042 16.435 7.81601 16.4401 7.61586Z" fill="#F9BF2C"/>
<path d="M13.9421 8.28746C14.322 8.26829 14.6218 8.09066 14.6117 7.89072C14.6016 7.69077 14.2855 7.54423 13.9056 7.5634C13.5257 7.58257 13.2259 7.7602 13.236 7.96014C13.2461 8.16009 13.5622 8.30663 13.9421 8.28746Z" fill="#FDD836"/>
<path d="M10.6533 8.25475C10.9993 8.0967 11.2124 7.82095 11.1292 7.63885C11.046 7.45674 10.6981 7.43724 10.3521 7.59529C10.0061 7.75334 9.79302 8.02909 9.8762 8.2112C9.95939 8.3933 10.3073 8.4128 10.6533 8.25475Z" fill="#F9BF2C"/>
<path d="M10.3424 9.15703C10.7028 9.03553 10.9432 8.78325 10.8792 8.59353C10.8153 8.40382 10.4712 8.34852 10.1108 8.47002C9.75034 8.59151 9.50997 8.8438 9.57391 9.03351C9.63786 9.22322 9.9819 9.27852 10.3424 9.15703Z" fill="#F9A823"/>
<path d="M17.49 8.56245C17.5222 8.36485 17.244 8.15501 16.8685 8.09377C16.4931 8.03253 16.1626 8.14307 16.1304 8.34067C16.0982 8.53827 16.3764 8.7481 16.7518 8.80934C17.1273 8.87059 17.4577 8.76005 17.49 8.56245Z" fill="#F9A823"/>
<path d="M18.5621 8.02561C18.6219 7.83456 18.3761 7.58751 18.0131 7.47381C17.6501 7.36011 17.3074 7.42282 17.2475 7.61388C17.1877 7.80493 17.4334 8.05198 17.7964 8.16568C18.1594 8.27937 18.5022 8.21666 18.5621 8.02561Z" fill="#F9A823"/>
<path d="M9.40558 8.23683C9.73298 8.04314 9.91575 7.74643 9.8138 7.57411C9.71186 7.4018 9.36381 7.41913 9.03641 7.61282C8.70901 7.80651 8.52624 8.10322 8.62819 8.27554C8.73013 8.44785 9.07818 8.43052 9.40558 8.23683Z" fill="#F9A823"/>
<path d="M8.95868 9.30256C9.28608 9.10887 9.46885 8.81216 9.3669 8.63985C9.26496 8.46753 8.91691 8.48486 8.58951 8.67855C8.26211 8.87225 8.07935 9.16895 8.18129 9.34127C8.28323 9.51358 8.63128 9.49625 8.95868 9.30256Z" fill="#F9A823"/>
<path d="M12.2762 18.7262C12.6555 18.6973 12.9506 18.512 12.9354 18.3124C12.9202 18.1128 12.6003 17.9744 12.2211 18.0033C11.8418 18.0323 11.5467 18.2176 11.5619 18.4172C11.5771 18.6168 11.8969 18.7552 12.2762 18.7262Z" fill="#FDD836"/>
<path d="M12.3623 19.4331C12.7416 19.4042 13.0367 19.2189 13.0215 19.0193C13.0062 18.8197 12.6864 18.6813 12.3071 18.7103C11.9278 18.7392 11.6327 18.9245 11.6479 19.1241C11.6632 19.3237 11.983 19.4621 12.3623 19.4331Z" fill="#F9BF2C"/>
<path d="M15.0685 18.3808C15.0736 18.1806 14.7695 18.0105 14.3892 18.0009C14.0089 17.9912 13.6965 18.1456 13.6915 18.3458C13.6864 18.5459 13.9905 18.716 14.3708 18.7257C14.7511 18.7353 15.0635 18.5809 15.0685 18.3808Z" fill="#FDD836"/>
<path d="M16.4433 19.086C16.4484 18.8859 16.1442 18.7158 15.764 18.7061C15.3837 18.6965 15.0713 18.8509 15.0662 19.051C15.0611 19.2512 15.3653 19.4213 15.7455 19.4309C16.1258 19.4406 16.4382 19.2862 16.4433 19.086Z" fill="#F9BF2C"/>
<path d="M13.9419 19.7603C14.3218 19.7411 14.6215 19.5635 14.6114 19.3635C14.6014 19.1636 14.2852 19.017 13.9053 19.0362C13.5254 19.0554 13.2256 19.233 13.2357 19.433C13.2458 19.6329 13.562 19.7794 13.9419 19.7603Z" fill="#FDD836"/>
<path d="M16.4968 18.4632C16.5257 18.2651 16.244 18.06 15.8676 18.005C15.4912 17.9501 15.1627 18.0662 15.1338 18.2643C15.1049 18.4624 15.3865 18.6675 15.7629 18.7224C16.1393 18.7773 16.4679 18.6613 16.4968 18.4632Z" fill="#FDD836"/>
<path d="M10.654 19.728C11 19.5699 11.213 19.2942 11.1299 19.1121C11.0467 18.9299 10.6987 18.9104 10.3527 19.0685C10.0067 19.2265 9.79369 19.5023 9.87688 19.6844C9.96006 19.8665 10.308 19.886 10.654 19.728Z" fill="#F9BF2C"/>
<path d="M10.3432 20.6298C10.7037 20.5083 10.944 20.256 10.8801 20.0663C10.8161 19.8766 10.4721 19.8213 10.1116 19.9428C9.75119 20.0643 9.51082 20.3166 9.57477 20.5063C9.63871 20.696 9.98275 20.7513 10.3432 20.6298Z" fill="#F9A823"/>
<path d="M17.4935 20.0331C17.5257 19.8355 17.2475 19.6257 16.872 19.5645C16.4966 19.5032 16.1661 19.6138 16.1339 19.8114C16.1016 20.009 16.3799 20.2188 16.7553 20.28C17.1307 20.3413 17.4612 20.2308 17.4935 20.0331Z" fill="#F9A823"/>
<path d="M19.6325 20.7091C19.7056 20.5227 19.4777 20.259 19.1235 20.1202C18.7693 19.9814 18.423 20.02 18.3499 20.2064C18.2769 20.3928 18.5048 20.6565 18.8589 20.7953C19.2131 20.9341 19.5595 20.8955 19.6325 20.7091Z" fill="#F9A823"/>
<path d="M18.5652 19.4965C18.625 19.3054 18.3793 19.0584 18.0162 18.9447C17.6532 18.831 17.3105 18.8937 17.2506 19.0848C17.1908 19.2758 17.4365 19.5229 17.7995 19.6366C18.1625 19.7503 18.5053 19.6875 18.5652 19.4965Z" fill="#F9A823"/>
<path d="M9.40759 19.7099C9.73499 19.5162 9.91776 19.2195 9.81582 19.0471C9.71387 18.8748 9.36582 18.8921 9.03842 19.0858C8.71103 19.2795 8.52826 19.5762 8.6302 19.7486C8.73215 19.9209 9.0802 19.9035 9.40759 19.7099Z" fill="#F9A823"/>
<path d="M8.7851 21.0021C9.1125 20.8085 9.29526 20.5117 9.19332 20.3394C9.09138 20.1671 8.74333 20.1844 8.41593 20.3781C8.08853 20.5718 7.90576 20.8685 8.0077 21.0409C8.10965 21.2132 8.4577 21.1958 8.7851 21.0021Z" fill="#F9A823"/>
<path d="M51.62 32.489C51.4976 31.4695 50.5144 31.5647 50.4464 31.5828C50.2787 31.1931 49.7531 31.1478 49.3045 31.1478C49.0915 31.1478 48.8378 31.2112 48.6067 31.32C48.3575 31.4378 48.0765 31.4378 47.8273 31.32C47.5962 31.2112 47.3425 31.1478 47.1295 31.1478C46.9165 31.1478 46.6628 31.2112 46.4317 31.32C46.1825 31.4378 45.9015 31.4378 45.6523 31.32C45.4212 31.2112 45.1675 31.1478 44.9545 31.1478C44.7415 31.1478 44.4878 31.2112 44.2567 31.32C44.0075 31.4378 43.7265 31.4378 43.4773 31.32C43.2462 31.2112 42.9925 31.1478 42.7795 31.1478C42.5665 31.1478 42.3128 31.2112 42.0817 31.32C41.8325 31.4378 41.5515 31.4378 41.3023 31.32C41.0712 31.2112 40.8175 31.1478 40.6045 31.1478C40.1514 31.1478 39.5351 31.2112 39.3675 31.6055C39.295 31.5873 38.5518 31.7595 38.3162 32.4075C38.0217 32.8017 37.845 33.2911 37.845 33.8258V43.3686C37.845 44.6826 38.9098 45.7475 40.2239 45.7475H49.6398C50.9539 45.7475 52.0187 44.6826 52.0187 43.3686V33.8167C52.0278 33.3273 51.8783 32.8697 51.62 32.489Z" fill="url(#paint16_linear_3_388)"/>
<g opacity="0.2">
<path opacity="0.2" d="M42.1678 35.5884C41.9367 35.6519 41.2299 35.8966 41.0078 35.8648C40.1605 35.738 39.4672 35.1353 39.2135 34.6641C39.0005 34.2653 39.9339 34.2155 40.0064 34.3423C40.3961 35.0492 41.5969 34.5145 42.1135 34.5553C42.9789 34.6233 43.6178 35.1806 42.1678 35.5884Z" fill="#434343"/>
</g>
<path d="M42.7614 35.0084C42.7614 35.0084 42.5892 35.2259 41.5244 35.2169L38.8917 33.0781C38.7014 32.915 39.073 32.625 39.3041 32.4981L39.4491 32.4211C39.5669 32.3577 39.7119 32.3395 39.8433 32.3758L43.2372 33.273C43.4955 33.3409 43.6224 33.5766 43.5091 33.7759L42.911 34.8634C42.8792 34.9223 42.8249 34.9722 42.7614 35.0084Z" fill="#F47C20"/>
<path d="M41.4383 35.2033L39.5261 34.7774C39.4219 34.7547 39.3404 34.6867 39.3086 34.6052L38.7785 33.0781C38.7105 32.8833 38.9461 32.7066 39.1818 32.7745L42.263 33.6763C42.4261 33.7261 42.5077 33.8711 42.4488 34.0025L41.9821 34.9813C41.905 35.158 41.6649 35.2531 41.4383 35.2033Z" fill="#F37021"/>
<g opacity="0.2">
<path opacity="0.2" d="M42.4714 38.8147C42.6889 38.9008 42.6481 39.2724 43.79 39.2134C44.9319 39.1545 45.9695 38.8509 46.2912 38.2574C46.5042 37.8586 45.5708 37.8088 45.4983 37.9356C45.1086 38.6425 43.9078 38.1078 43.3912 38.1486C42.5212 38.2211 42.1497 38.6924 42.4714 38.8147Z" fill="#434343"/>
</g>
<path d="M43.1738 38.783L45.8563 38.1123L46.0375 37.12L45.2672 36.5038C45.1675 36.4222 45.0497 36.3769 44.9228 36.3633L42.8928 36.173C42.6527 36.25 42.2494 36.7711 42.3536 37.0022L42.4895 38.4159L43.1738 38.783Z" fill="#F47C20"/>
<path d="M43.5227 38.7694L45.6433 38.3208C45.7928 38.2891 45.9152 38.1894 45.9786 38.0489L46.1508 37.6592C46.2822 37.3602 46.0828 37.0203 45.7566 36.9931L43.5181 36.7937C43.2508 36.7711 43.0152 36.975 43.0016 37.2423L42.9472 38.28C42.9336 38.5927 43.2191 38.8373 43.5227 38.7694Z" fill="#F37021"/>
<g opacity="0.2">
<path opacity="0.2" d="M47.9769 43.1239C48.1944 43.21 48.1536 43.5816 49.2955 43.5227C50.4374 43.4637 51.475 43.1602 51.7967 42.5666C52.0097 42.1678 51.0763 42.118 51.0038 42.2448C50.6141 42.9517 49.4133 42.417 48.8968 42.4578C48.0268 42.5258 47.6597 42.997 47.9769 43.1239Z" fill="#434343"/>
</g>
<path d="M48.6792 43.0922L51.3617 42.4216L51.543 41.4292L50.7727 40.813C50.673 40.7314 50.5552 40.6861 50.4283 40.6725L48.1355 41.0214C47.8953 41.0985 47.4921 41.6195 47.5963 41.8506L47.9905 42.7252L48.6792 43.0922Z" fill="#F47C20"/>
<path d="M49.0327 43.0786L51.1533 42.63C51.3028 42.5983 51.4252 42.4986 51.4886 42.3581L51.6608 41.9684C51.7922 41.6694 51.5928 41.3295 51.2666 41.3023L48.711 41.47C48.4436 41.4473 48.208 41.6512 48.1944 41.9186L48.4527 42.5892C48.4436 42.9019 48.7246 43.1466 49.0327 43.0786Z" fill="#F37021"/>
<g opacity="0.2">
<path opacity="0.2" d="M43.4728 44.9138C43.2553 44.9999 43.2961 45.3714 42.1542 45.3125C41.0124 45.2536 39.9747 44.95 39.653 44.3564C39.44 43.9577 40.3734 43.9078 40.4459 44.0347C40.8356 44.7416 42.0364 44.2069 42.553 44.2477C43.423 44.3156 43.79 44.7869 43.4728 44.9138Z" fill="#434343"/>
</g>
<path d="M42.7705 44.8775L40.088 44.2069L39.9067 43.2145L40.677 42.5983C40.7767 42.5167 40.8946 42.4714 41.0214 42.4578L43.3142 42.8067C43.5544 42.8837 43.9577 43.4048 43.8535 43.6359L43.4592 44.5105L42.7705 44.8775Z" fill="#F47C20"/>
<path d="M42.417 44.8684L40.2964 44.4199C40.1469 44.3881 40.0245 44.2884 39.9611 44.148L39.7889 43.7583C39.6575 43.4592 39.8569 43.1194 40.1831 43.0922L42.7388 43.2599C43.0061 43.2372 43.2417 43.4411 43.2553 43.7084L42.997 44.3791C43.0061 44.6917 42.7252 44.9319 42.417 44.8684Z" fill="#F37021"/>
<path d="M40.2919 35.3619C40.3961 35.5658 40.6997 35.7108 40.6997 35.7108L41.8552 35.4842C41.8552 35.4842 41.982 35.38 42.0364 35.3166C42.2313 35.0855 41.7374 33.9028 41.1075 34.1883C40.4777 34.4737 40.1061 34.9948 40.2919 35.3619Z" fill="#FCB316"/>
<path d="M40.8165 35.371C41.0426 35.3059 41.2056 35.1829 41.1806 35.0963C41.1557 35.0098 40.9522 34.9924 40.7262 35.0575C40.5001 35.1227 40.3371 35.2457 40.3621 35.3322C40.387 35.4188 40.5905 35.4362 40.8165 35.371Z" fill="#F78F1E"/>
<path d="M46.5541 38.4658C46.1916 38.1396 45.8426 38.3117 45.4756 38.5202C45.2581 38.6425 45.0406 38.8555 44.9455 39.141C44.8503 39.4264 45.7339 40.3553 46.2187 39.8569C46.7036 39.3585 46.8622 38.7377 46.5541 38.4658Z" fill="#FCB316"/>
<path d="M46.2551 38.9035C46.4424 38.7611 46.55 38.5876 46.4955 38.5159C46.441 38.4441 46.245 38.5014 46.0577 38.6437C45.8704 38.7861 45.7628 38.9596 45.8173 39.0313C45.8718 39.103 46.0679 39.0458 46.2551 38.9035Z" fill="#F78F1E"/>
<path d="M48.3711 44.9319C48.5343 45.3895 48.9194 45.4122 49.3408 45.4077C49.59 45.4031 49.8846 45.3261 50.1066 45.1222C50.3286 44.9183 50.0024 43.6812 49.3408 43.8806C48.6747 44.08 48.2352 44.5422 48.3711 44.9319Z" fill="#FCB316"/>
<path d="M48.8887 45.0162C49.1215 44.9822 49.2996 44.8823 49.2866 44.7932C49.2735 44.704 49.0743 44.6594 48.8415 44.6934C48.6087 44.7275 48.4306 44.8274 48.4437 44.9165C48.4567 45.0057 48.656 45.0503 48.8887 45.0162Z" fill="#F78F1E"/>
<path d="M37.9175 42.4986C38.0806 42.9562 38.4658 42.9789 38.8872 42.9744C39.1364 42.9698 39.431 42.8928 39.653 42.6889C39.875 42.485 39.5488 41.2479 38.8872 41.4473C38.2211 41.6422 37.7816 42.1089 37.9175 42.4986Z" fill="#FCB316"/>
<path d="M38.4352 42.5823C38.668 42.5483 38.8461 42.4484 38.833 42.3592C38.82 42.2701 38.6207 42.2254 38.388 42.2595C38.1552 42.2936 37.9771 42.3934 37.9901 42.4826C38.0032 42.5717 38.2024 42.6164 38.4352 42.5823Z" fill="#F78F1E"/>
<path opacity="0.2" d="M49.8528 34.4737C50.2507 34.4737 50.5733 34.3013 50.5733 34.0886C50.5733 33.8759 50.2507 33.7034 49.8528 33.7034C49.4549 33.7034 49.1323 33.8759 49.1323 34.0886C49.1323 34.3013 49.4549 34.4737 49.8528 34.4737Z" fill="#434343"/>
<path d="M49.8438 34.0659C50.2417 34.0659 50.5642 33.7434 50.5642 33.3455C50.5642 32.9476 50.2417 32.625 49.8438 32.625C49.4459 32.625 49.1233 32.9476 49.1233 33.3455C49.1233 33.7434 49.4459 34.0659 49.8438 34.0659Z" fill="url(#paint17_radial_3_388)"/>
<path opacity="0.2" d="M40.4504 39.0911C40.8483 39.0911 41.1709 38.9187 41.1709 38.706C41.1709 38.4932 40.8483 38.3208 40.4504 38.3208C40.0525 38.3208 39.73 38.4932 39.73 38.706C39.73 38.9187 40.0525 39.0911 40.4504 39.0911Z" fill="#434343"/>
<path d="M40.4414 38.6788C40.8393 38.6788 41.1619 38.3562 41.1619 37.9583C41.1619 37.5604 40.8393 37.2378 40.4414 37.2378C40.0435 37.2378 39.7209 37.5604 39.7209 37.9583C39.7209 38.3562 40.0435 38.6788 40.4414 38.6788Z" fill="url(#paint18_radial_3_388)"/>
<path opacity="0.2" d="M48.4345 40.1469C48.8324 40.1469 49.155 39.9744 49.155 39.7617C49.155 39.549 48.8324 39.3766 48.4345 39.3766C48.0366 39.3766 47.7141 39.549 47.7141 39.7617C47.7141 39.9744 48.0366 40.1469 48.4345 40.1469Z" fill="#434343"/>
<path d="M48.4254 39.7391C48.8233 39.7391 49.1459 39.4165 49.1459 39.0186C49.1459 38.6207 48.8233 38.2981 48.4254 38.2981C48.0275 38.2981 47.705 38.6207 47.705 39.0186C47.705 39.4165 48.0275 39.7391 48.4254 39.7391Z" fill="url(#paint19_radial_3_388)"/>
<path opacity="0.2" d="M45.7792 45.0406C46.1771 45.0406 46.4997 44.8682 46.4997 44.6555C46.4997 44.4427 46.1771 44.2703 45.7792 44.2703C45.3813 44.2703 45.0588 44.4427 45.0588 44.6555C45.0588 44.8682 45.3813 45.0406 45.7792 45.0406Z" fill="#434343"/>
<path d="M45.7702 44.6328C46.1681 44.6328 46.4906 44.3102 46.4906 43.9123C46.4906 43.5144 46.1681 43.1919 45.7702 43.1919C45.3723 43.1919 45.0497 43.5144 45.0497 43.9123C45.0497 44.3102 45.3723 44.6328 45.7702 44.6328Z" fill="url(#paint20_radial_3_388)"/>
<path opacity="0.2" d="M49.948 36.7303C49.948 37.0339 49.59 37.1698 48.6701 37.0701C48.0176 37.0022 47.7865 37.0883 47.7865 36.7847C47.7865 36.4811 47.7639 35.7198 48.6973 35.5975C49.6308 35.4797 49.948 36.2772 49.948 36.7303Z" fill="#434343"/>
<path d="M48.7517 36.2681C49.2818 36.2862 49.8346 36.83 49.8573 36.7937C49.9117 36.7122 49.8165 35.9056 49.6761 35.8195L48.7607 35.2758C48.652 35.2123 48.5115 35.2441 48.439 35.3528L47.8907 36.0914L47.9134 36.8527C48.1989 36.9252 48.2215 36.25 48.7517 36.2681Z" fill="#AF5C2B"/>
<path d="M48.5931 36.8617C48.6611 36.8844 48.9375 36.975 49.1097 36.9614C49.3634 36.9387 49.3951 36.8526 49.6806 36.8753C49.9479 36.898 49.8754 36.685 49.6897 36.5762L48.7744 36.0325C48.6656 35.969 48.5251 36.0008 48.4526 36.1095L47.9044 36.8481C48.2986 36.9931 48.3756 36.7847 48.5931 36.8617Z" fill="#8B4A22"/>
<path d="M48.6384 35.96H48.6294C48.5614 35.96 48.5115 35.9056 48.5115 35.8422V35.3981C48.5115 35.3301 48.5659 35.2803 48.6294 35.2803H48.6384C48.7064 35.2803 48.7562 35.3347 48.7562 35.3981V35.8422C48.7608 35.9056 48.7064 35.96 48.6384 35.96Z" fill="#C56E39"/>
<path opacity="0.2" d="M46.5767 34.9994C46.5767 35.303 46.2188 35.4389 45.2989 35.3392C44.6464 35.2712 44.4153 35.3573 44.4153 35.0537C44.4153 34.7502 44.3927 33.9889 45.3261 33.8666C46.2595 33.7487 46.5767 34.5462 46.5767 34.9994Z" fill="#434343"/>
<path d="M45.3805 34.5372C45.9106 34.5553 46.4634 35.0991 46.4861 35.0628C46.5405 34.9812 46.4453 34.1747 46.3048 34.0886L45.3895 33.5448C45.2808 33.4814 45.1403 33.5131 45.0678 33.6219L44.5195 34.3605L44.5422 35.1217C44.8277 35.1942 44.8503 34.5191 45.3805 34.5372Z" fill="#AF5C2B"/>
<path d="M45.2219 35.1308C45.2899 35.1534 45.5663 35.2441 45.7385 35.2305C45.9922 35.2078 46.0239 35.1217 46.3094 35.1444C46.5767 35.167 46.5042 34.9541 46.3185 34.8453L45.4031 34.3016C45.2944 34.2381 45.1539 34.2698 45.0814 34.3786L44.5331 35.1172C44.9319 35.2622 45.0044 35.0537 45.2219 35.1308Z" fill="#8B4A22"/>
<path d="M45.2717 34.2291H45.2626C45.1947 34.2291 45.1448 34.1747 45.1448 34.1113V33.6672C45.1448 33.5992 45.1992 33.5494 45.2626 33.5494H45.2717C45.3397 33.5494 45.3895 33.6038 45.3895 33.6672V34.1113C45.3895 34.1792 45.3351 34.2291 45.2717 34.2291Z" fill="#C56E39"/>
<path opacity="0.2" d="M42.9653 40.9262C42.9653 41.2298 42.6073 41.3658 41.6875 41.2661C41.035 41.1981 40.8039 41.2842 40.8039 40.9806C40.8039 40.677 40.7812 39.9158 41.7147 39.7934C42.6481 39.6801 42.9653 40.4776 42.9653 40.9262Z" fill="#434343"/>
<path d="M41.7645 40.4641C42.2947 40.4822 42.8475 41.0259 42.8701 40.9897C42.9245 40.9081 42.8293 40.1016 42.6889 40.0155L41.7736 39.4717C41.6648 39.4083 41.5243 39.44 41.4518 39.5488L40.9036 40.2874L40.9262 41.0486C41.2162 41.1211 41.2343 40.4459 41.7645 40.4641Z" fill="#AF5C2B"/>
<path d="M41.6104 41.0577C41.6784 41.0803 41.9548 41.1709 42.127 41.1573C42.3808 41.1347 42.4125 41.0486 42.6979 41.0713C42.9653 41.0939 42.8928 40.8809 42.707 40.7722L41.7917 40.2284C41.6829 40.165 41.5425 40.1967 41.47 40.3055L40.9217 41.0441C41.3159 41.1891 41.3929 40.9806 41.6104 41.0577Z" fill="#8B4A22"/>
<path d="M41.6557 40.1605H41.6467C41.5787 40.1605 41.5289 40.1061 41.5289 40.0427V39.5986C41.5289 39.5306 41.5832 39.4808 41.6467 39.4808H41.6557C41.7237 39.4808 41.7736 39.5351 41.7736 39.5986V40.0427C41.7736 40.1061 41.7237 40.1605 41.6557 40.1605Z" fill="#C56E39"/>
<path opacity="0.2" d="M48.8741 16.752C48.8741 14.6586 46.0647 12.9639 42.5938 12.9639C39.1274 12.9639 36.3135 14.6586 36.3135 16.752C36.3135 17.5087 36.685 18.2111 37.3194 18.8047C36.2591 19.7381 35.6021 20.9978 35.6021 22.3844C35.6021 25.2662 38.4114 27.6044 41.8824 27.6044C45.3488 27.6044 48.1627 25.2662 48.1627 22.3844C48.1627 21.2833 47.7503 20.2637 47.0525 19.4209C48.1763 18.7367 48.8741 17.7942 48.8741 16.752Z" fill="#212121"/>
<path d="M42.1361 27.695C45.1116 27.695 47.5237 25.6075 47.5237 23.0323C47.5237 20.4572 45.1116 18.3697 42.1361 18.3697C39.1605 18.3697 36.7484 20.4572 36.7484 23.0323C36.7484 25.6075 39.1605 27.695 42.1361 27.695Z" fill="#1E5F30"/>
<path d="M42.1361 27.1966C45.1116 27.1966 47.5237 25.109 47.5237 22.5339C47.5237 19.9588 45.1116 17.8712 42.1361 17.8712C39.1605 17.8712 36.7484 19.9588 36.7484 22.5339C36.7484 25.109 39.1605 27.1966 42.1361 27.1966Z" fill="#4D803B"/>
<path d="M42.136 26.2586C44.586 26.2586 46.5721 24.5403 46.5721 22.4206C46.5721 20.301 44.586 18.5826 42.136 18.5826C39.6861 18.5826 37.7 20.301 37.7 22.4206C37.7 24.5403 39.6861 26.2586 42.136 26.2586Z" fill="#B7CE7A"/>
<path d="M42.1361 25.162C43.8854 25.162 45.3034 23.9347 45.3034 22.4206C45.3034 20.9066 43.8854 19.6792 42.1361 19.6792C40.3868 19.6792 38.9688 20.9066 38.9688 22.4206C38.9688 23.9347 40.3868 25.162 42.1361 25.162Z" fill="#B3CA62"/>
<path d="M47.7775 6.15344C48.6611 7.58985 47.9497 9.64704 46.187 10.7481C44.4244 11.8492 42.2766 11.5819 41.3884 10.1455C40.5048 8.70907 41.2162 6.65188 42.9789 5.55079C44.7416 4.44969 46.8939 4.71704 47.7775 6.15344Z" fill="#568B3E"/>
<path opacity="0.2" d="M48.362 21.46C47.8681 22.9145 45.1765 23.3133 42.3536 22.3436C39.5261 21.3739 37.6365 19.4074 38.1305 17.9528C38.6244 16.4983 41.3159 16.0995 44.1389 17.0692C46.9619 18.0389 48.8559 20.0055 48.362 21.46Z" fill="#212121"/>
<path d="M44.3609 10.7164C43.5997 7.84359 41.2027 5.99484 39.005 6.58391C36.8074 7.17297 35.6428 9.98234 36.4086 12.8506C37.1699 15.7234 39.5669 17.5722 41.7645 16.9831C43.9622 16.3941 45.1222 13.5892 44.3609 10.7164Z" fill="#1E5F30"/>
<path d="M42.1905 16.8698C39.9928 17.4589 37.5958 15.6102 36.8345 12.7373C36.0733 9.86453 37.2378 7.05969 39.4309 6.47062C41.6241 5.88156 44.0256 7.73031 44.7869 10.6031C45.5526 13.4759 44.3881 16.2808 42.1905 16.8698Z" fill="#568B3E"/>
<path d="M42.041 15.9273C40.233 16.4122 38.2574 14.8897 37.6321 12.5244C37.0067 10.1591 37.9628 7.85265 39.7708 7.36328C41.5788 6.8739 43.5544 8.40093 44.1797 10.7662C44.805 13.1316 43.8489 15.4425 42.041 15.9273Z" fill="#CEE298"/>
<path d="M41.7147 14.7039C40.4233 15.0528 39.0141 13.9653 38.5655 12.2751C38.1169 10.585 38.8011 8.93562 40.0925 8.59124C41.3839 8.24687 42.7931 9.32983 43.2417 11.02C43.6903 12.7056 43.0061 14.355 41.7147 14.7039Z" fill="#C4DC72"/>
<path d="M47.347 6.0764C44.8231 5.01609 42.0772 5.84078 41.2162 7.91609C40.3553 9.9914 41.7056 12.5334 44.2295 13.5937C46.7534 14.6541 49.4994 13.8294 50.3603 11.7541C51.2212 9.67875 49.8755 7.13671 47.347 6.0764Z" fill="#1E5F30"/>
<path d="M50.5325 11.3508C49.6715 13.4261 46.9301 14.2508 44.4017 13.1905C41.8778 12.1301 40.5275 9.58811 41.3884 7.5128C42.2494 5.43749 44.9908 4.6128 47.5192 5.67311C50.0431 6.73342 51.3934 9.27545 50.5325 11.3508Z" fill="#568B3E"/>
<path d="M49.7576 10.9248C49.0507 12.6331 46.7896 13.3128 44.7098 12.4383C42.63 11.5683 41.5198 9.47484 42.2267 7.76656C42.9336 6.05828 45.1947 5.37859 47.2745 6.25312C49.3543 7.12765 50.469 9.21656 49.7576 10.9248Z" fill="#CEE298"/>
<path d="M48.9148 10.5714C48.3666 11.8991 46.613 12.4247 44.9998 11.745C43.3867 11.0698 42.5258 9.44311 43.0741 8.11999C43.6223 6.79686 45.3759 6.26671 46.9891 6.94639C48.6022 7.62155 49.4631 9.24374 48.9148 10.5714Z" fill="#C4DC72"/>
<path d="M47.8228 12.1528C45.1312 12.6603 43.287 14.8625 43.6994 17.0737C44.1117 19.285 46.6265 20.667 49.3136 20.1595C52.0051 19.652 53.8494 17.4498 53.437 15.2386C53.0247 13.0273 50.5144 11.6453 47.8228 12.1528Z" fill="#1E5F30"/>
<path d="M53.36 14.5544C53.7724 16.7656 51.9236 18.9678 49.2366 19.4753C46.545 19.9828 44.0347 18.6008 43.6223 16.3895C43.21 14.1783 45.0588 11.9761 47.7458 11.4686C50.4328 10.9611 52.9477 12.3431 53.36 14.5544Z" fill="#4D803B"/>
<path d="M52.4809 14.6224C52.8208 16.4439 51.2983 18.2564 49.087 18.6733C46.8713 19.0902 44.805 17.9528 44.4652 16.1358C44.1253 14.3142 45.6478 12.5017 47.8591 12.0849C50.0703 11.6635 52.1411 12.8008 52.4809 14.6224Z" fill="#B7CE7A"/>
<path d="M51.7741 14.7538C52.055 16.2536 50.7999 17.7489 48.9783 18.0888C47.1567 18.4331 45.4485 17.4952 45.1721 15.9953C44.8911 14.4955 46.1463 13.0002 47.9678 12.6603C49.7894 12.3159 51.4932 13.2539 51.7741 14.7538Z" fill="#B3CA62"/>
<path opacity="0.2" d="M31.2521 18.2927C34.7206 18.2927 37.5324 16.7265 37.5324 14.7945C37.5324 12.8626 34.7206 11.2964 31.2521 11.2964C27.7835 11.2964 24.9717 12.8626 24.9717 14.7945C24.9717 16.7265 27.7835 18.2927 31.2521 18.2927Z" fill="#212121"/>
<path d="M43.6088 13.63C40.8583 12.4836 38.0308 13.0092 37.2922 14.8036C36.5536 16.598 38.1849 18.9814 40.9308 20.1278C43.6813 21.2742 46.5088 20.7486 47.2474 18.9542C47.986 17.1598 46.3547 14.7764 43.6088 13.63Z" fill="#1E5F30"/>
<path d="M47.4195 18.1023C46.681 19.8967 43.8535 20.4223 41.103 19.2759C38.3525 18.1295 36.7258 15.7461 37.4644 13.9517C38.203 12.1573 41.0305 11.6317 43.781 12.7781C46.5314 13.9245 48.1581 16.308 47.4195 18.1023Z" fill="#568B3E"/>
<path d="M46.5722 17.6583C45.965 19.1355 43.636 19.5659 41.3749 18.6234C39.1138 17.6809 37.7725 15.7189 38.3797 14.2417C38.9869 12.7645 41.316 12.3341 43.5771 13.2766C45.8381 14.2236 47.1794 16.1856 46.5722 17.6583Z" fill="#F9EBBB"/>
<path d="M45.7883 17.332C45.2944 18.5283 43.4139 18.8772 41.5833 18.1114C39.7526 17.3501 38.6697 15.7597 39.1591 14.568C39.653 13.3717 41.5334 13.0228 43.3641 13.7886C45.1947 14.5544 46.2822 16.1403 45.7883 17.332Z" fill="#DEE67C"/>
<path d="M47.7775 19.2759C45.2491 19.5523 43.3414 21.1156 43.5227 22.765C43.6994 24.4144 45.897 25.5291 48.4255 25.2526C50.9539 24.9762 52.8616 23.413 52.6803 21.7636C52.5036 20.1142 50.3059 18.9995 47.7775 19.2759Z" fill="#1E5F30"/>
<path opacity="0.2" d="M52.7845 22.3119C52.9612 23.9613 51.0581 25.5246 48.5297 25.801C46.0012 26.0774 43.8036 24.9672 43.6269 23.3133C43.4501 21.6639 45.3533 20.1006 47.8817 19.8242C50.4101 19.5478 52.6033 20.6625 52.7845 22.3119Z" fill="#212121"/>
<path d="M52.5897 21.2606C52.7664 22.91 50.8633 24.4733 48.3348 24.7497C45.8064 25.0261 43.6087 23.9159 43.432 22.262C43.2553 20.6127 45.1584 19.0494 47.6869 18.773C50.2153 18.4966 52.413 19.6112 52.5897 21.2606Z" fill="#568B3E"/>
<path d="M51.7741 21.2788C51.9191 22.6381 50.3513 23.925 48.2714 24.1516C46.1916 24.3781 44.3836 23.4628 44.2341 22.1034C44.0891 20.7441 45.6569 19.4572 47.7367 19.2306C49.8166 19.0041 51.6246 19.9194 51.7741 21.2788Z" fill="#F9EBBB"/>
<path d="M51.0536 21.3603C51.1714 22.4614 49.9027 23.4991 48.2216 23.6848C46.5359 23.8706 45.0769 23.1275 44.9545 22.0309C44.8367 20.9298 46.1055 19.8922 47.7866 19.7064C49.4722 19.5206 50.9313 20.2592 51.0536 21.3603Z" fill="#DEE67C"/>
<path d="M26.5169 14.7356C24.8901 12.8778 24.9219 10.807 24.8856 10.2135C24.7587 8.10189 25.9187 7.95689 28.3475 6.97814C31.4605 5.72299 38.0806 5.15658 38.2755 8.06111C38.5428 12.0577 36.8481 14.858 33.1234 16.3125C30.3503 17.391 27.9895 16.4122 26.5169 14.7356Z" fill="#CCB795"/>
<path d="M25.307 12.1166C23.9658 9.53376 25.2391 6.50235 28.352 5.24719C31.465 3.99204 36.9569 4.49954 38.0353 7.20469C39.1138 9.90985 35.5567 14.1556 32.3078 14.9803C28.8414 15.8549 26.5169 14.4456 25.307 12.1166Z" fill="url(#paint21_radial_3_388)"/>
<path d="M27.2237 11.0517C26.5622 9.3933 27.1829 7.60799 29.0906 6.83768C30.9983 6.06736 33.1415 6.55674 33.8031 8.21517C34.4647 9.87361 33.427 12.035 31.5148 12.8053C29.6072 13.5756 27.8808 12.7102 27.2237 11.0517Z" fill="url(#paint22_radial_3_388)"/>
<path opacity="0.2" d="M31.2521 28.4245C34.7206 28.4245 37.5324 26.8584 37.5324 24.9264C37.5324 22.9944 34.7206 21.4283 31.2521 21.4283C27.7835 21.4283 24.9717 22.9944 24.9717 24.9264C24.9717 26.8584 27.7835 28.4245 31.2521 28.4245Z" fill="#212121"/>
<path d="M26.5169 25.2119C24.8901 23.3541 24.9219 21.2833 24.8856 20.6897C24.7587 18.5781 25.9187 18.4331 28.3475 17.4544C31.4605 16.1992 38.0806 15.6328 38.2755 18.5374C38.5428 22.5339 36.8481 25.3342 33.1234 26.7888C30.3503 27.8672 27.9895 26.8885 26.5169 25.2119Z" fill="#CCB795"/>
<path d="M25.307 22.5928C23.9658 20.01 25.2391 16.9786 28.352 15.7235C31.465 14.4683 36.9569 14.9758 38.0353 17.681C39.1138 20.3861 35.5567 24.6319 32.3078 25.4566C28.8414 26.3311 26.5169 24.9264 25.307 22.5928Z" fill="url(#paint23_radial_3_388)"/>
<path d="M27.2237 21.528C26.5622 19.8696 27.1829 18.0842 29.0906 17.3139C30.9983 16.5436 33.1415 17.033 33.8031 18.6914C34.4647 20.3499 33.427 22.5113 31.5148 23.2816C29.6072 24.0519 27.8808 23.1864 27.2237 21.528Z" fill="url(#paint24_radial_3_388)"/>
<path d="M70.8359 12.625H73.1875V24H70.8359V16.4453L66.2812 24H63.9375V12.625H66.2812V20.1953L70.8359 12.625ZM84.4766 24H82.1328V19.125H77.5625V24H75.2188V12.625H77.5625V17.2344H82.1328V12.625H84.4766V24ZM97.25 26.7969H95.0859V24H88.2266V26.7891H86.0078L85.8828 22.1172H86.7422C87.2057 21.7318 87.5625 21.1667 87.8125 20.4219C88.0677 19.6719 88.2396 18.7448 88.3281 17.6406L88.6562 12.625H96.1094V22.1172H97.4375L97.25 26.7969ZM89.4297 22.1172H93.7656V14.5234H90.8828L90.6875 17.5156C90.5312 19.5208 90.112 21.0547 89.4297 22.1172ZM105.516 19.0703H101.016V22.1172H106.297V24H98.6719V12.625H106.281V14.5234H101.016V17.2344H105.516V19.0703ZM111.383 19.3516H110.031V24H107.688V12.625H110.031V17.1797H111.102L113.883 12.625H116.742L113.234 18.0078L117.109 24H114.312L111.383 19.3516ZM126.695 20.2109C126.607 21.4349 126.154 22.3984 125.336 23.1016C124.523 23.8047 123.451 24.1562 122.117 24.1562C120.659 24.1562 119.51 23.6667 118.672 22.6875C117.839 21.7031 117.422 20.3542 117.422 18.6406V17.9453C117.422 16.8516 117.615 15.888 118 15.0547C118.385 14.2214 118.935 13.5833 119.648 13.1406C120.367 12.6927 121.201 12.4688 122.148 12.4688C123.461 12.4688 124.518 12.8203 125.32 13.5234C126.122 14.2266 126.586 15.2135 126.711 16.4844H124.367C124.31 15.75 124.104 15.2188 123.75 14.8906C123.401 14.5573 122.867 14.3906 122.148 14.3906C121.367 14.3906 120.781 14.6719 120.391 15.2344C120.005 15.7917 119.807 16.6589 119.797 17.8359V18.6953C119.797 19.9245 119.982 20.8229 120.352 21.3906C120.727 21.9583 121.315 22.2422 122.117 22.2422C122.841 22.2422 123.38 22.0781 123.734 21.75C124.094 21.4167 124.299 20.9036 124.352 20.2109H126.695ZM70.8594 39.0703H66.3594V42.1172H71.6406V44H64.0156V32.625H71.625V34.5234H66.3594V37.2344H70.8594V39.0703ZM83.5625 46.7969H81.3984V44H74.5391V46.7891H72.3203L72.1953 42.1172H73.0547C73.5182 41.7318 73.875 41.1667 74.125 40.4219C74.3802 39.6719 74.5521 38.7448 74.6406 37.6406L74.9688 32.625H82.4219V42.1172H83.75L83.5625 46.7969ZM75.7422 42.1172H80.0781V34.5234H77.1953L77 37.5156C76.8438 39.5208 76.4245 41.0547 75.7422 42.1172ZM91.5312 41.6562H87.4219L86.6406 44H84.1484L88.3828 32.625H90.5547L94.8125 44H92.3203L91.5312 41.6562ZM88.0547 39.7578H90.8984L89.4688 35.5L88.0547 39.7578Z" fill="black"/>
<defs>
<linearGradient id="paint0_linear_3_388" x1="5.63704" y1="2.78327" x2="52.9127" y2="50.0589" gradientUnits="userSpaceOnUse">
<stop offset="0.2239" stop-color="#434343"/>
<stop offset="0.5619" stop-color="#323535"/>
<stop offset="0.8997" stop-color="#404141"/>
</linearGradient>
<radialGradient id="paint1_radial_3_388" cx="0" cy="0" r="1" gradientUnits="userSpaceOnUse" gradientTransform="translate(19.3815 29.2235) scale(19.2064)">
<stop offset="0.4088" stop-color="white"/>
<stop offset="0.724" stop-color="#ECEFF0"/>
<stop offset="0.9654" stop-color="#D0D8DC"/>
</radialGradient>
<radialGradient id="paint2_radial_3_388" cx="0" cy="0" r="1" gradientUnits="userSpaceOnUse" gradientTransform="translate(18.8986 32.1459) scale(17.7642)">
<stop offset="0.2277" stop-color="white"/>
<stop offset="0.6304" stop-color="#ECEFF0"/>
<stop offset="0.9654" stop-color="#D0D8DC"/>
</radialGradient>
<radialGradient id="paint3_radial_3_388" cx="0" cy="0" r="1" gradientUnits="userSpaceOnUse" gradientTransform="translate(19.3815 29.2235) scale(19.2064)">
<stop offset="0.4088" stop-color="white"/>
<stop offset="0.724" stop-color="#ECEFF0"/>
<stop offset="0.9654" stop-color="#D0D8DC"/>
</radialGradient>
<radialGradient id="paint4_radial_3_388" cx="0" cy="0" r="1" gradientUnits="userSpaceOnUse" gradientTransform="translate(18.9668 32.4989) scale(2.04183 2.33605)">
<stop offset="0.1384" stop-color="#F47C20"/>
<stop offset="0.8823" stop-color="#E45325"/>
</radialGradient>
<radialGradient id="paint5_radial_3_388" cx="0" cy="0" r="1" gradientUnits="userSpaceOnUse" gradientTransform="translate(13.7996 7.41497) scale(7.31172 5.9469)">
<stop offset="0.0529" stop-color="#FFCB28"/>
<stop offset="1" stop-color="#F9A01B"/>
</radialGradient>
<linearGradient id="paint6_linear_3_388" x1="13.8065" y1="16.7076" x2="13.8065" y2="8.98854" gradientUnits="userSpaceOnUse">
<stop offset="0.0303" stop-color="#F37021"/>
<stop offset="1" stop-color="#F9A01B"/>
</linearGradient>
<linearGradient id="paint7_linear_3_388" x1="13.9592" y1="8.03323" x2="13.9592" y2="16.1545" gradientUnits="userSpaceOnUse">
<stop stop-color="#BFCA33"/>
<stop offset="0.8669" stop-color="#679F42"/>
</linearGradient>
<radialGradient id="paint8_radial_3_388" cx="0" cy="0" r="1" gradientUnits="userSpaceOnUse" gradientTransform="translate(13.7996 12.8622) scale(7.31172 5.9469)">
<stop offset="0.0574" stop-color="#FFCB28"/>
<stop offset="1" stop-color="#F9A01B"/>
</radialGradient>
<linearGradient id="paint9_linear_3_388" x1="13.8065" y1="22.1548" x2="13.8065" y2="14.4358" gradientUnits="userSpaceOnUse">
<stop offset="0.0303" stop-color="#F37021"/>
<stop offset="1" stop-color="#F9A01B"/>
</linearGradient>
<linearGradient id="paint10_linear_3_388" x1="13.7506" y1="13.6317" x2="13.7506" y2="21.7531" gradientUnits="userSpaceOnUse">
<stop stop-color="#BFCA33"/>
<stop offset="0.8669" stop-color="#679F42"/>
</linearGradient>
<linearGradient id="paint11_linear_3_388" x1="13.7477" y1="20.9227" x2="13.7477" y2="15.534" gradientUnits="userSpaceOnUse">
<stop stop-color="#346A34" stop-opacity="0.6"/>
<stop offset="0.9267" stop-color="#679F42" stop-opacity="0"/>
</linearGradient>
<radialGradient id="paint12_radial_3_388" cx="0" cy="0" r="1" gradientUnits="userSpaceOnUse" gradientTransform="translate(13.7996 18.8102) scale(7.31172 5.9469)">
<stop offset="0.0603" stop-color="#FFCB28"/>
<stop offset="1" stop-color="#F9A01B"/>
</radialGradient>
<linearGradient id="paint13_linear_3_388" x1="13.8065" y1="25.932" x2="13.8065" y2="20.3838" gradientUnits="userSpaceOnUse">
<stop offset="0.0303" stop-color="#F37021"/>
<stop offset="1" stop-color="#F9A01B"/>
</linearGradient>
<linearGradient id="paint14_linear_3_388" x1="13.7491" y1="19.4353" x2="13.7491" y2="27.5566" gradientUnits="userSpaceOnUse">
<stop stop-color="#BFCA33"/>
<stop offset="0.8669" stop-color="#679F42"/>
</linearGradient>
<linearGradient id="paint15_linear_3_388" x1="13.6176" y1="25.5053" x2="13.6176" y2="21.2437" gradientUnits="userSpaceOnUse">
<stop stop-color="#346A34" stop-opacity="0.6"/>
<stop offset="0.9267" stop-color="#679F42" stop-opacity="0"/>
</linearGradient>
<linearGradient id="paint16_linear_3_388" x1="44.9386" y1="44.0233" x2="44.9386" y2="29.4277" gradientUnits="userSpaceOnUse">
<stop stop-color="#8D401E"/>
<stop offset="0.6486" stop-color="#BB5B27"/>
</linearGradient>
<radialGradient id="paint17_radial_3_388" cx="0" cy="0" r="1" gradientUnits="userSpaceOnUse" gradientTransform="translate(49.728 33.2007) scale(0.720693)">
<stop offset="0.2043" stop-color="#8BC249"/>
<stop offset="1" stop-color="#679F42"/>
</radialGradient>
<radialGradient id="paint18_radial_3_388" cx="0" cy="0" r="1" gradientUnits="userSpaceOnUse" gradientTransform="translate(40.3254 37.815) scale(0.720691)">
<stop offset="0.2043" stop-color="#8BC249"/>
<stop offset="1" stop-color="#679F42"/>
</radialGradient>
<radialGradient id="paint19_radial_3_388" cx="0" cy="0" r="1" gradientUnits="userSpaceOnUse" gradientTransform="translate(48.3119 38.8738) scale(0.720695)">
<stop offset="0.2043" stop-color="#8BC249"/>
<stop offset="1" stop-color="#679F42"/>
</radialGradient>
<radialGradient id="paint20_radial_3_388" cx="0" cy="0" r="1" gradientUnits="userSpaceOnUse" gradientTransform="translate(45.6537 43.7675) scale(0.720699)">
<stop offset="0.2043" stop-color="#8BC249"/>
<stop offset="1" stop-color="#679F42"/>
</radialGradient>
<radialGradient id="paint21_radial_3_388" cx="0" cy="0" r="1" gradientUnits="userSpaceOnUse" gradientTransform="translate(28.6261 7.26595) scale(11.9479 12.0231)">
<stop offset="0.4485" stop-color="#FFF3E1"/>
<stop offset="1" stop-color="#FFE0B2"/>
</radialGradient>
<radialGradient id="paint22_radial_3_388" cx="0" cy="0" r="1" gradientUnits="userSpaceOnUse" gradientTransform="translate(30.5459 10.0659) scale(3.40261 3.42404)">
<stop stop-color="#F36E21"/>
<stop offset="1" stop-color="#FAAA43"/>
</radialGradient>
<radialGradient id="paint23_radial_3_388" cx="0" cy="0" r="1" gradientUnits="userSpaceOnUse" gradientTransform="translate(28.6261 17.7426) scale(11.9479 12.0231)">
<stop offset="0.4485" stop-color="#FFF3E1"/>
<stop offset="1" stop-color="#FFE0B2"/>
</radialGradient>
<radialGradient id="paint24_radial_3_388" cx="0" cy="0" r="1" gradientUnits="userSpaceOnUse" gradientTransform="translate(30.5459 20.5426) scale(3.40261 3.42404)">
<stop stop-color="#F36E21"/>
<stop offset="1" stop-color="#FAAA43"/>
</radialGradient>
</defs>
</svg>
