<svg width="28" height="28" viewBox="0 0 28 28" fill="none" xmlns="http://www.w3.org/2000/svg">
<circle cx="14" cy="14" r="14" fill="#C4C4C4"/>
<g clip-path="url(#clip0_25_278)">
<path d="M19.2771 15.1609C19.0185 14.8459 19.0925 14.7057 19.2771 14.4241C19.2805 14.4209 21.4159 11.5756 21.6359 10.6107L21.6372 10.6101C21.7465 10.2584 21.6372 10 21.1085 10H19.3591C18.9138 10 18.7084 10.2218 18.5984 10.4699C18.5984 10.4699 17.7077 12.5258 16.4477 13.8584C16.041 14.2435 15.853 14.3669 15.631 14.3669C15.5217 14.3669 15.3517 14.2435 15.3517 13.8919V10.6101C15.3517 10.1884 15.227 10 14.8583 10H12.1075C11.8282 10 11.6622 10.1967 11.6622 10.3799C11.6622 10.7798 12.2922 10.8717 12.3576 11.9967V14.4376C12.3576 14.9725 12.2569 15.0709 12.0335 15.0709C11.4389 15.0709 9.99547 13.0066 9.14011 10.6441C8.96744 10.1858 8.79876 10.0006 8.35008 10.0006H6.60002C6.10067 10.0006 6 10.2224 6 10.4706C6 10.909 6.59469 13.0889 8.76543 15.9689C10.2122 17.9348 12.2495 19 14.103 19C15.217 19 15.353 18.7634 15.353 18.3565C15.353 16.4781 15.2523 16.3006 15.8103 16.3006C16.069 16.3006 16.5144 16.4241 17.5544 17.3723C18.7431 18.4966 18.9384 19 19.6038 19H21.3532C21.8519 19 22.1046 18.7634 21.9592 18.2967C21.6265 17.3151 19.3785 15.2959 19.2771 15.1609Z" fill="black"/>
</g>
<defs>
<clipPath id="clip0_25_278">
<rect width="16" height="9" fill="white" transform="translate(6 10)"/>
</clipPath>
</defs>
</svg>
